<?xml version="1.0" encoding="utf-8"?>
<!-- Generator: Adobe Illustrator 24.2.1, SVG Export Plug-In . SVG Version: 6.00 Build 0)  -->
<svg version="1.1" id="Layer_1" xmlns="http://www.w3.org/2000/svg" xmlns:xlink="http://www.w3.org/1999/xlink" x="0px" y="0px"
	 viewBox="0 0 90 31.4" style="enable-background:new 0 0 90 31.4;" xml:space="preserve">
<style type="text/css">
	.st0{fill:#FFC31A;}
</style>
<path class="st0" d="M43.5,9.7c0.1,0,0.2,0,0.2,0c0.1,0,0.2,0,0.3,0l0.4,0c0.1-0.2,0.3-0.4,0.4-0.7c0.1-0.2,0.2-0.4,0.3-0.6
	c0.1-0.3,0.1-0.5,0-0.6c-0.1-0.1-0.2-0.1-0.4-0.1c-0.2,0-0.4,0.1-0.5,0.1c-0.1,0-0.3,0.1-0.4,0.2c-0.1,0.1-0.1,0.1-0.1,0.1
	c0,0,0,0,0,0c0.1,0.1,0.1,0.3,0,0.4c-0.1,0.2-0.1,0.3-0.2,0.5c-0.1,0.1-0.1,0.3-0.2,0.4C43.4,9.6,43.4,9.6,43.5,9.7z M44.7,8.8
	L44.7,8.8c0-0.1,0.1-0.1,0.1-0.2l0.1-0.1l0,0c0,0,0,0.1,0,0.1c0,0.1,0,0.1,0,0.1c0,0,0,0,0,0.1C44.7,8.8,44.7,8.9,44.7,8.8L44.7,8.8
	z M44.3,9.4C44.3,9.4,44.4,9.4,44.3,9.4C44.4,9.4,44.4,9.4,44.3,9.4c0.1-0.1,0.1-0.1,0.1-0.1c0,0,0-0.1,0-0.1l0-0.1c0,0,0,0,0,0
	c0,0,0,0,0,0c0,0,0,0,0-0.1c0,0,0,0,0,0c0,0,0,0,0,0c0,0,0,0,0,0c0,0,0-0.1,0-0.1h0c0,0,0,0,0,0c0,0,0,0,0,0.1c0,0,0,0,0,0
	c0,0,0,0,0,0c0,0,0,0,0,0.1c0,0,0,0.1,0,0.1l-0.1,0.1c0,0,0,0.1,0,0.1l0,0l0,0C44.4,9.4,44.4,9.5,44.3,9.4
	C44.4,9.5,44.4,9.5,44.3,9.4C44.4,9.5,44.3,9.5,44.3,9.4C44.3,9.5,44.3,9.4,44.3,9.4z"/>
<path class="st0" d="M65.8,10.3c-0.2,0-0.5,0-0.8,0c-0.3,0-0.6,0-1,0.1c0-0.2,0.1-0.5,0.1-0.7s0.1-0.5,0.1-0.8
	c0.1-0.2,0.1-0.4,0.2-0.5c0.1-0.1,0.1-0.2,0.2-0.4c0-0.1,0.1-0.2,0.2-0.2c-0.2,0-0.4,0-0.6-0.1c-0.2,0-0.3,0-0.5,0
	c-0.1,0-0.2,0.1-0.3,0.2c0,0-0.1,0.1-0.1,0.2c-3.1,3.3-4.4,3.2-4.5,3.2l0,0c0,0,0,0,0,0l0.1-0.1c0-0.1,0-0.2,0.1-0.4
	c0-0.2,0-0.4,0-0.6c0,0,0,0,0,0c0-0.2,0-0.4-0.1-0.5c0-0.1-0.1-0.3-0.2-0.4c0,0,0-0.1-0.1-0.1c0,0,0-0.1-0.1-0.1
	C58.6,9,58.5,9,58.4,8.9c-0.1-0.1-0.2-0.1-0.3-0.2c-0.1,0-0.3-0.1-0.4-0.1c-0.1,0-0.3,0-0.4,0c-0.1,0-0.2,0.1-0.4,0.1
	c-0.1,0.1-0.2,0.1-0.3,0.2l-0.1,0.1c-0.1,0.1-0.1,0.1-0.2,0.2c-0.1,0.1-0.1,0.2-0.2,0.3c0,0.1-0.1,0.2-0.1,0.4c0,0,0,0,0,0
	c0,0-0.1,0.1-0.3,0.2c-0.2,0.1-0.3,0.3-0.5,0.5c-0.1,0.1-0.1,0.2-0.2,0.3c-0.3,0.3-0.6,0.5-0.9,0.7c-0.2,0.2-0.5,0.3-0.8,0.5
	c-0.2,0.2-0.5,0.3-0.8,0.4c-0.2,0.1-0.5,0.2-0.7,0.3c-0.2,0.1-0.4,0.1-0.6,0.1c-0.1,0-0.2-0.1-0.2-0.2c0-0.2,0.1-0.3,0.1-0.4
	c0.1-0.2,0.2-0.4,0.4-0.6l0.5-0.7c0.2-0.3,0.3-0.5,0.5-0.8c0.1-0.2,0.3-0.5,0.4-0.7C53,9.4,53,9.2,53.1,9c0-0.2-0.1-0.3-0.2-0.4
	c-0.1-0.1-0.2-0.1-0.3-0.2l-0.3-0.1c-0.2,0-0.5,0-0.7,0.1C51.3,8.6,51,8.8,50.7,9c-0.3,0.2-0.6,0.4-0.9,0.7
	c-0.3,0.2-0.6,0.5-0.8,0.7L48.2,11c-0.3,0.2-0.5,0.4-0.7,0.6c0.3-0.4,0.6-0.9,0.9-1.4c0.3-0.4,0.6-0.8,1-1.2c0,0,0-0.1,0-0.1l-0.1,0
	c-0.1,0-0.2,0-0.4,0c-0.2,0-0.4,0-0.6,0.1L48.2,9l-0.1,0c0,0.1-0.1,0.1-0.2,0.2s-0.2,0.2-0.3,0.4c-0.1,0.2-0.3,0.4-0.5,0.7
	c-0.1,0.2-0.3,0.4-0.4,0.6c-0.2,0.2-0.5,0.3-0.7,0.5s-0.4,0.3-0.7,0.4c-0.2,0.1-0.5,0.2-0.7,0.3c-0.2,0.1-0.4,0.2-0.7,0.2
	c-0.2,0.1-0.4,0.1-0.6,0.1c-0.2,0-0.3-0.1-0.3-0.3c0.1-0.2,0.1-0.4,0.3-0.6c0.1-0.2,0.3-0.5,0.5-0.7c0.2-0.2,0.3-0.5,0.5-0.8
	c0-0.1-0.1-0.2-0.2-0.2c-0.2,0-0.3,0-0.5,0.1c-0.2,0-0.3,0.1-0.5,0.2c-0.1,0-0.2,0.1-0.3,0.2c-0.1,0.2-0.2,0.3-0.3,0.5
	c-0.3,0.2-0.5,0.4-0.8,0.5c-0.2,0.1-0.4,0.3-0.7,0.4c-0.2,0.1-0.5,0.2-0.7,0.3c-0.2,0.1-0.4,0.2-0.7,0.2c-0.2,0.1-0.4,0.1-0.6,0.1
	c-0.2,0-0.3-0.1-0.3-0.2c0-0.2,0.1-0.3,0.2-0.5c0.1-0.2,0.3-0.4,0.4-0.6c0.2-0.2,0.3-0.5,0.4-0.7C40,10.3,40,10,40.1,9.8
	c0-0.2-0.1-0.4-0.2-0.5c-0.1-0.1-0.2-0.1-0.3-0.2c-0.1,0-0.2-0.1-0.3-0.1c-0.2,0-0.4,0-0.6,0c-0.3,0.1-0.5,0.2-0.7,0.3
	c-0.3,0.1-0.5,0.3-0.8,0.5c-0.3,0.2-0.5,0.4-0.8,0.6c-0.3,0.2-0.6,0.4-0.8,0.6c-0.2,0.2-0.5,0.4-0.7,0.5s-0.4,0.4-0.6,0.6
	c0.2-0.3,0.4-0.6,0.5-1c0.1-0.3,0.2-0.6,0.2-1c0-0.3,0-0.6-0.2-0.8c-0.1-0.2-0.4-0.4-0.7-0.4c-0.2,0-0.3,0-0.5,0
	C33.4,9,33.2,9,33,9.1c-0.2,0.1-0.4,0.2-0.6,0.4c-0.2,0.1-0.4,0.3-0.6,0.4c-0.5,0.4-1,0.8-1.4,1.3c0-0.1,0.1-0.2,0.1-0.2
	c0.1-0.1,0.1-0.2,0.2-0.3l0.3-0.4C31,10.2,31,10,31.1,9.9c0-0.1,0-0.2,0-0.3c-0.1-0.1-0.1-0.2-0.2-0.2c-0.1-0.1-0.2-0.1-0.3-0.2
	c-0.1-0.1-0.2-0.1-0.3-0.1c-0.1,0-0.1,0-0.2,0.1c0,0-0.1,0.1-0.1,0.2c0,0.1-0.1,0.2-0.1,0.3c-0.1,0.1-0.1,0.3-0.2,0.5
	c-0.1,0.2-0.1,0.3-0.2,0.4l-0.1,0.1c-0.2,0.1-0.4,0.3-0.6,0.4c-0.2,0.1-0.4,0.3-0.7,0.4s-0.5,0.3-0.7,0.4c-0.2,0.1-0.5,0.2-0.7,0.3
	c-0.2,0.1-0.4,0.1-0.6,0.1c-0.2,0-0.4-0.1-0.5-0.3c-0.1-0.2-0.2-0.4-0.3-0.6c-0.1-0.2-0.1-0.5-0.1-0.7c0-0.2,0-0.3,0-0.5
	c0-0.1,0-0.2-0.1-0.3c-0.1-0.1-0.1-0.2-0.3-0.3c0,0,0,0,0,0.1c0,0,0,0.1,0,0.1c0,0,0,0.1,0,0.1c0,0,0,0,0,0.1c0,0,0,0,0,0.1
	c0,0,0,0.1,0,0.1v0.1c0,0,0,0.1,0,0.1c0,0,0,0,0,0.1c0,0,0,0,0,0c0,0.1,0,0.1,0,0c0,0,0,0,0-0.1v-0.1c0,0,0,0,0-0.1c0,0,0,0,0-0.1
	c0-0.1,0-0.1,0-0.2c0-0.1,0-0.1,0-0.2c0-0.1,0-0.2,0.1-0.3c-0.2-0.1-0.4-0.1-0.6-0.1c-0.1,0.1-0.3,0.1-0.4,0.2
	c-0.2,0.1-0.4,0.3-0.6,0.5c-0.2,0.2-0.5,0.4-0.7,0.6c-0.2,0.2-0.5,0.4-0.7,0.6s-0.4,0.3-0.5,0.4L21,11.9c-0.1,0-0.1,0.1-0.2,0.1
	c0-0.1,0-0.3,0.1-0.4c0.1-0.2,0.3-0.4,0.5-0.5c0.2-0.2,0.4-0.4,0.7-0.6c0.3-0.2,0.5-0.4,0.8-0.6c0.3-0.2,0.5-0.3,0.7-0.5
	c0.2-0.1,0.4-0.2,0.5-0.3C24.1,9,24.3,9,24.4,9c0.1,0,0.3,0,0.4,0.1c0.1,0,0.2,0.1,0.3,0.2c0.1,0.1,0.2,0.1,0.2,0.2c0,0,0,0,0.1,0
	c0,0,0,0,0,0c-0.1-0.2-0.3-0.5-0.5-0.6c-0.2-0.1-0.4-0.2-0.6-0.3c-0.2,0-0.4,0-0.7,0c-0.3,0.1-0.5,0.2-0.8,0.3
	c-0.3,0.1-0.6,0.3-0.9,0.5c-0.3,0.2-0.6,0.4-0.9,0.6c-0.3,0.2-0.5,0.4-0.8,0.6c-0.2,0.2-0.4,0.4-0.6,0.6c-0.1,0.1-0.2,0.2-0.2,0.3
	L19,11.8c-0.7,0.6-1.4,1.1-2.2,1.6c-0.8,0.5-1.7,0.9-2.6,1.2c-1,0.3-2,0.5-3,0.4c-1.4,0-2.4-0.2-3.3-0.7c-0.8-0.4-1.4-1-1.7-1.8
	C5.9,11.8,5.9,10.9,6,10c0.2-1.1,0.6-2.2,1.2-3.2c0.6-1.1,1.3-2,2.1-2.9c0.7-0.7,1.4-1.3,2.3-1.9c0.6-0.4,1.3-0.7,2-1
	c0.5-0.2,1-0.2,1.5-0.2c0.1,0,0.2,0,0.3,0c0.1,0,0.3,0.1,0.4,0.1C16,1,16.1,1.1,16.2,1.2c0.2,0.1,0.3,0.3,0.4,0.4v0c0,0,0,0,0,0
	l0.1,0.2c0,0.1,0.1,0.1,0.1,0.2C17,2.2,17,2.2,17,2.3c0,0,0,0,0,0.1c0,0,0.1,0.1,0.1,0.1h0c0.1,0,0.2,0,0.3-0.1
	c0.1,0,0.1-0.1,0.2-0.1c0.1,0,0.1-0.1,0.1-0.2c0-0.1,0-0.2-0.1-0.3c0-0.1-0.1-0.2-0.1-0.3c0-0.1-0.1-0.2-0.1-0.2
	c-0.1-0.3-0.3-0.5-0.6-0.7c-0.2-0.2-0.4-0.3-0.7-0.4C16,0.1,15.7,0,15.5,0c-1.1,0-2.3,0.2-3.3,0.6c-0.5,0.2-1,0.5-1.5,0.8
	C10,1.7,9.5,2.1,9,2.5C8.4,3.1,7.9,3.6,7.4,4.3C6.8,5,6.3,5.8,5.9,6.6C5.7,6.9,5.6,7.2,5.5,7.6c-0.1,0.3-0.2,0.6-0.3,1
	C5,8.9,4.9,9.3,4.9,9.8c0,0.1,0,0.3,0,0.6c0,0.3,0,0.6,0.1,0.9C5,11.6,5.1,12,5.2,12.4c0.1,0.4,0.4,0.8,0.6,1.1
	c0.3,0.4,0.7,0.8,1.1,1c0.5,0.3,1.1,0.6,1.8,0.8c0.2,0,0.4,0.1,0.6,0.1c0.2,0,0.4,0.1,0.6,0.1c0.9,0.1,1.9,0.2,2.8,0
	c0.8-0.1,1.7-0.3,2.5-0.6c0.8-0.3,1.5-0.7,2.2-1.1c0.7-0.4,1.3-0.9,2-1.4c0.1,0,0.1-0.1,0.2-0.2c0.3,0.2,0.6,0.2,0.9,0.2
	c0.1,0,0.2,0,0.3-0.1c0.2-0.1,0.3-0.2,0.5-0.3c0.2-0.1,0.4-0.3,0.6-0.4c0.2-0.2,0.4-0.3,0.6-0.4c0.5-0.4,1-0.8,1.6-1.2
	c0,0.1,0,0.3,0,0.4c0,0.1,0,0.3,0,0.5c0,0.2,0.1,0.4,0.1,0.6c0.1,0.3,0.2,0.5,0.5,0.7c0.2,0.1,0.4,0.3,0.6,0.3
	c0.3,0.1,0.5,0.1,0.8,0.2c0.2,0,0.4,0,0.6-0.1c0.2-0.1,0.5-0.1,0.7-0.3c0.2-0.1,0.5-0.2,0.7-0.4c0.2-0.1,0.5-0.3,0.7-0.4
	c0.2-0.1,0.3-0.2,0.5-0.3c0,0.1,0,0.2,0,0.3c0.1,0.1,0.2,0.2,0.3,0.3c0.1,0.1,0.2,0.2,0.3,0.2c0.1,0.1,0.2,0.1,0.3,0.2
	c0,0,0.1,0,0.1,0c0,0,0.1,0,0.1-0.1c0.1-0.1,0.2-0.2,0.4-0.4c0.2-0.2,0.4-0.4,0.7-0.7c0.3-0.2,0.5-0.5,0.8-0.7
	c0.3-0.2,0.5-0.4,0.8-0.6c0.2-0.2,0.4-0.3,0.7-0.3c0.2-0.1,0.3,0,0.4,0.1c0.1,0.1,0.1,0.3,0.1,0.4c0,0.2,0,0.4-0.1,0.6
	C34,10.6,34,10.8,33.9,11c-0.1,0.2-0.2,0.5-0.3,0.7c-0.3,0.6-0.6,1.1-0.9,1.7c-0.1,0.1-0.1,0.2,0,0.4c0,0.1,0.1,0.2,0.2,0.3
	c0.1,0.1,0.2,0.1,0.3,0.2c0.1,0,0.2,0.1,0.3,0.1c0,0,0.1,0,0.1,0c0-0.1,0.1-0.2,0.1-0.2c0.1-0.2,0.2-0.3,0.4-0.5
	c0.2-0.2,0.4-0.5,0.7-0.8c0.3-0.3,0.6-0.7,1.1-1.2c0.4-0.5,0.9-1,1.5-1.4c0.3-0.2,0.6-0.4,0.9-0.5c0.1-0.1,0.3-0.1,0.4-0.1
	c0.1,0,0.1,0.1,0.1,0.1c0,0.1,0,0.1,0,0.2c-0.1,0.1-0.1,0.2-0.2,0.4c-0.1,0.2-0.2,0.3-0.3,0.6c-0.1,0.2-0.2,0.4-0.3,0.6
	c-0.1,0.2-0.1,0.4-0.1,0.6c0,0.2,0.1,0.4,0.2,0.5c0.2,0.2,0.4,0.3,0.7,0.3c0.3,0,0.6,0,0.8,0c0.3-0.1,0.6-0.1,0.9-0.3
	c0.3-0.1,0.6-0.3,0.9-0.4c0.3-0.2,0.6-0.3,0.8-0.5l0.2-0.1c0,0.1-0.1,0.2-0.1,0.3c-0.1,0.2,0,0.5,0.1,0.7c0.2,0.2,0.5,0.4,0.8,0.3
	c0.3,0,0.6,0,0.8,0c0.3-0.1,0.6-0.1,0.9-0.3c0.3-0.1,0.6-0.3,0.9-0.4c0.3-0.2,0.6-0.3,0.8-0.5l0,0l-0.1,0.2
	c-0.1,0.2-0.2,0.4-0.2,0.6c-0.1,0.3-0.1,0.6,0,0.9c0.1,0.1,0.2,0.1,0.3,0.2c0.1,0.1,0.2,0.1,0.3,0.1h0.1c0,0,0,0,0.1-0.1
	c0,0,0.1-0.1,0.1-0.1c0.1-0.1,0.1-0.2,0.2-0.3c0.1-0.1,0.3-0.3,0.5-0.6c0.2-0.3,0.6-0.6,1-1.1c0.5-0.5,1-1,1.5-1.5
	c0.3-0.3,0.7-0.5,1-0.8c0.2-0.1,0.4-0.2,0.6-0.3c0.1,0,0.2,0,0.2,0c0,0.1,0,0.1,0,0.2c-0.1,0.2-0.1,0.3-0.2,0.4
	c-0.1,0.2-0.3,0.5-0.5,0.8s-0.3,0.6-0.5,0.9c-0.1,0.3-0.2,0.6-0.3,0.9c-0.1,0.2,0,0.5,0,0.7c0.1,0.2,0.4,0.4,0.6,0.4
	c0.3,0,0.6,0,0.9,0c0.3-0.1,0.7-0.2,1-0.3c0.3-0.1,0.6-0.3,0.9-0.5c0.3-0.2,0.6-0.4,0.9-0.6c0.1-0.1,0.2-0.2,0.3-0.2c0,0,0,0,0,0
	c0,0.1,0,0.2,0,0.4c0,0.2,0.1,0.4,0.3,0.6l0.2,0.1c0.1,0.1,0.1,0.1,0.2,0.1c0.1,0,0.2,0.1,0.3,0.1c0.1,0,0.2,0,0.4,0
	c0.2,0,0.3,0,0.5-0.1c0,0,0.1,0,0.1-0.1c0,0,0.1,0,0.1-0.1c0.4-0.1,0.7-0.3,1-0.5c0.2-0.2,0.4-0.4,0.6-0.6c0,0,0.1,0,0.1,0
	c2-0.1,4.2-2.6,4.6-3c0,0.3-0.1,0.5-0.1,0.9s-0.1,0.6-0.2,1c-0.3,0.1-0.7,0.2-1,0.3c-0.3,0.1-0.6,0.2-0.9,0.4
	c-0.2,0.1-0.4,0.3-0.6,0.5c-0.2,0.2-0.2,0.4-0.3,0.7c0,0.2,0.1,0.3,0.2,0.4c0.1,0.1,0.2,0.3,0.4,0.4c0.2,0.1,0.4,0.3,0.7,0.3
	c0.2,0.1,0.5,0.1,0.7,0.1c0.3-0.1,0.5-0.2,0.7-0.4c0.3-0.3,0.5-0.6,0.6-1c0.2-0.5,0.4-1,0.5-1.6c0.5-0.1,1-0.2,1.6-0.3
	c0.6-0.1,1.3-0.1,2-0.2h-1C66.4,10.3,66.1,10.3,65.8,10.3z M11.5,1.6C11.5,1.5,11.5,1.5,11.5,1.6c0.1-0.1,0.1-0.1,0.1-0.2
	c0,0,0,0,0-0.1c0,0,0-0.1,0-0.1c0,0,0-0.1,0-0.1c0,0,0.1,0,0.1,0c0,0,0.1,0,0.1,0c0,0,0.1,0,0.1,0c0,0,0,0,0,0.1c0,0,0.1,0,0.1,0
	c0,0,0.1,0,0.1,0c0,0,0.1,0,0.1,0c0,0,0,0,0,0c0,0,0,0,0,0c0,0,0,0,0,0l-0.1,0.1c0,0-0.1,0.1-0.1,0.1c0,0-0.1,0-0.1,0c0,0,0,0-0.1,0
	c0,0,0,0-0.1,0c0,0-0.1,0-0.1,0c0,0,0,0-0.1,0c0,0,0,0-0.1,0l-0.1,0C11.6,1.7,11.6,1.7,11.5,1.6C11.5,1.7,11.5,1.7,11.5,1.6
	C11.4,1.6,11.4,1.6,11.5,1.6z M9.6,2.5l0-0.1l0-0.1c0,0,0.1,0,0.1-0.1c0.1,0,0.1-0.1,0.2-0.1c0,0,0.1-0.1,0.1-0.1l0,0h0l0.1,0
	c0,0,0.1,0,0.1,0l0.1,0L10.4,2c0,0,0,0,0.1,0c0,0,0,0,0.1,0c0,0,0.1,0,0.1,0c0,0,0.1,0,0.1,0l0.1,0c0,0,0,0,0,0c0,0,0,0.1,0,0.1
	c0,0,0,0.1-0.1,0.1c0,0,0,0-0.1,0.1c0,0-0.1,0.1-0.1,0.1c0,0-0.1,0-0.1,0.1c0,0-0.1,0.1-0.1,0.1c0,0,0,0-0.1,0l-0.1,0.1
	c0,0-0.1,0.1-0.1,0.1C10,2.8,10,2.8,9.9,2.8c0,0,0,0-0.1,0c0,0-0.1,0-0.1-0.1C9.7,2.6,9.6,2.5,9.6,2.5z M8.7,3.3c0,0,0-0.1,0.1-0.1
	c0,0,0-0.1,0.1-0.1C8.9,3,9,3,9,3c0,0,0-0.1,0.1-0.1l0.1-0.1c0,0,0.1,0,0.1-0.1c0,0,0.1,0,0.1-0.1c0,0,0,0,0.1,0c0,0,0,0,0.1,0
	c0,0.1,0.1,0.1,0.1,0.2c0,0,0,0.1-0.1,0.1L9.4,3.1L9.3,3.1c-0.1,0-0.1,0.1-0.1,0.1c0,0.1,0,0.1-0.1,0.1C9.1,3.5,9.1,3.5,9,3.5h0
	c0,0,0,0,0,0c0,0-0.1,0-0.1,0C8.7,3.4,8.7,3.3,8.7,3.3z M6.7,6.2C6.7,6.2,6.7,6.2,6.7,6.2c0-0.1,0-0.1,0-0.2c0,0,0-0.1,0.1-0.1
	c0,0,0.1-0.1,0.1-0.1c0,0,0-0.1,0-0.1c0,0,0-0.1,0-0.1c0-0.1,0.1-0.1,0.1-0.2C7,5.3,7,5.3,7.1,5.2c0,0,0,0,0-0.1l0,0
	c0,0,0,0,0.1-0.1l0-0.1c0,0,0.1-0.1,0.1-0.1c0,0,0.1-0.1,0.1-0.1c0,0,0-0.1,0.1-0.1c0,0,0-0.1,0.1-0.1l0.1-0.1c0,0,0,0,0,0
	c0,0,0,0,0,0c0,0,0.1-0.1,0.1-0.1c0,0,0,0,0-0.1l0,0c0,0,0.1-0.1,0.1-0.1C8,4,8,3.9,8,3.9c0,0,0.1-0.1,0.1-0.1c0,0,0,0,0,0
	c0,0,0,0,0,0c0,0,0,0,0.1-0.1c0,0,0.1,0,0.1-0.1l0.1,0c0,0,0,0,0.1,0c0,0,0,0,0.1,0c0,0,0,0,0.1,0c0,0,0.1,0,0.1,0.1
	c0,0,0,0.1,0,0.1l0,0c0,0,0,0,0,0c0,0.1-0.1,0.1-0.1,0.1c0,0-0.1,0-0.1,0.1c0,0,0,0,0,0l0,0c0,0,0,0,0,0c0,0-0.1,0-0.1,0.1
	c0,0-0.1,0-0.1,0.1c0,0,0,0.1,0,0.1c0,0,0,0.1,0,0.1c0,0,0,0.1,0,0.1c0,0,0,0.1,0,0.1c0,0,0,0,0,0.1c0,0,0,0,0,0.1c0,0,0,0.1,0,0.1
	s0,0.1,0,0.1C8,5,8,5,8,5c0,0.1-0.1,0.1-0.1,0.2L7.8,5.3c0,0-0.1,0.1-0.2,0.1c-0.1,0-0.1,0.1-0.1,0.1c0,0.1-0.1,0.2-0.1,0.3
	c0,0.1,0,0.1,0,0.2c0,0,0,0-0.1,0l-0.1,0c0,0,0,0-0.1,0c0,0,0,0,0,0.1c0,0.1,0,0.1,0,0.2c0,0.1-0.1,0.1-0.1,0.2c0,0,0,0,0,0H6.9
	c-0.1,0-0.1,0-0.2-0.1c0,0,0-0.1,0-0.1C6.7,6.3,6.7,6.3,6.7,6.2z M5.8,8.3c0-0.1,0-0.1,0-0.2C5.9,8,5.9,7.9,6,7.8c0-0.1,0-0.1,0-0.1
	c0,0,0-0.1,0-0.1c0,0,0,0,0-0.1c0,0,0,0,0-0.1c0,0,0,0,0,0c0,0,0,0,0-0.1c0,0,0,0,0-0.1c0,0,0,0,0,0c0-0.1,0-0.1,0.1-0.2
	c0,0,0-0.1,0.1-0.1c0,0,0-0.1,0-0.1l0.1-0.1c0-0.1,0.1-0.1,0.1-0.2c0.1-0.1,0.1-0.1,0.2,0.1c0,0,0,0.1,0,0.1c0,0,0,0,0,0.1
	c0,0,0,0,0,0c0,0,0,0,0,0c0,0,0,0.1,0,0.1c0,0,0,0.1,0,0.1c0,0.1-0.1,0.2-0.2,0.3L6.3,7.7C6.2,7.8,6.1,7.9,6,8
	C6,8.1,5.9,8.2,5.8,8.3C5.8,8.4,5.8,8.4,5.8,8.3C5.8,8.3,5.8,8.3,5.8,8.3z M14.6,14.6L14.6,14.6L14.6,14.6c-0.1,0.1-0.1,0.1-0.1,0.1
	c0,0-0.1,0-0.1,0l-0.1,0c0,0.1,0,0.1-0.1,0.1c0,0-0.1,0-0.1,0l-0.1,0c0,0,0,0-0.1,0c0,0-0.1,0-0.1,0c0,0,0,0,0,0c-0.1,0-0.1,0-0.2,0
	c0,0-0.1,0-0.1,0c0,0,0,0,0,0h0c0,0,0,0,0.1,0c0,0,0.1,0,0.1,0c0,0,0,0,0.1,0c0,0,0,0,0,0c0,0,0,0,0,0c0,0,0,0,0,0h0c0,0,0,0,0.1,0
	c0,0,0,0,0.1,0l0.1,0c0,0,0,0,0.1,0C14.5,14.6,14.6,14.6,14.6,14.6C14.6,14.5,14.6,14.5,14.6,14.6z M16.4,14
	C16.4,14,16.3,14,16.4,14c-0.1,0.1-0.2,0.1-0.2,0.1c-0.1,0-0.1,0.1-0.2,0.1c0,0-0.1,0-0.1,0h0h0c0,0,0,0-0.1,0c0,0-0.1,0-0.1,0
	c0,0,0,0,0,0c0,0,0,0,0,0c0,0,0,0,0,0c0,0-0.1,0-0.1,0c0,0-0.1,0-0.1,0c0,0-0.1,0-0.1,0c0,0,0,0,0,0c0,0,0.1,0,0.1-0.1
	c0,0,0.1,0,0.1,0l0.1,0c0,0,0.1,0,0.1-0.1l0.1-0.1l0.1-0.1l0,0c0.1,0,0.1-0.1,0.2-0.1c0,0,0.1,0,0.1-0.1c0,0,0,0,0.1,0c0,0,0,0,0,0
	l0.1,0L16.4,14C16.4,13.9,16.4,13.9,16.4,14z M17.4,13.3C17.4,13.4,17.4,13.4,17.4,13.3l-0.1,0.1l-0.1,0.1L17,13.6
	c0,0-0.1,0-0.1,0.1c-0.1,0-0.1,0.1-0.2,0.1c-0.1,0-0.1,0-0.1,0.1c0,0,0,0,0,0c0,0,0-0.1,0-0.1s0.1-0.1,0.1-0.1c0,0,0,0,0.1-0.1
	c0,0,0.1,0,0.1,0c0,0,0.1,0,0.1-0.1c0,0,0,0,0.1-0.1c0,0,0,0,0,0c0,0,0,0,0,0c0.1,0,0.1,0,0.2-0.1C17.3,13.3,17.3,13.3,17.4,13.3
	C17.3,13.3,17.3,13.3,17.4,13.3L17.4,13.3C17.4,13.3,17.4,13.3,17.4,13.3z M21.7,9.6C21.7,9.6,21.7,9.6,21.7,9.6
	c0.1-0.1,0.1-0.1,0.1-0.1c0,0,0.1,0,0.1-0.1l0,0c0,0,0,0,0.1,0c0,0,0.1-0.1,0.1-0.1c0,0,0,0,0.1,0c0,0,0.1,0,0.1,0
	c0,0,0.1,0,0.1-0.1l0.1-0.1c0,0,0.1,0,0.1-0.1c0,0,0.1,0,0.1-0.1c0,0,0,0,0.1,0c0,0,0,0,0.1,0c0.1,0,0.1,0,0.2-0.1
	c0,0,0.1-0.1,0.1-0.1c0,0,0.1,0,0.1,0c0,0,0.1,0,0.1,0c0.1,0,0.1,0,0.2,0c0,0,0,0,0,0c0,0,0,0.1-0.1,0.1l-0.1,0.1c0,0-0.1,0-0.1,0.1
	c-0.1,0-0.1,0-0.1,0.1c-0.1,0-0.1,0.1-0.2,0.2c0,0,0,0,0,0.1c0,0,0,0.1-0.1,0.1c-0.1,0-0.1,0.1-0.2,0.1c0,0-0.1,0-0.1,0
	c0,0-0.1,0-0.1,0.1c0,0-0.1,0.1-0.1,0.1l-0.1,0c0,0,0,0,0,0c0,0,0,0-0.1,0c0,0-0.1,0-0.1,0c0,0,0,0-0.1,0.1c0,0-0.1,0-0.1,0.1
	c0,0,0,0,0,0C21.7,9.7,21.7,9.7,21.7,9.6L21.7,9.6C21.7,9.6,21.7,9.6,21.7,9.6z M25.5,12.3L25.5,12.3C25.5,12.3,25.5,12.3,25.5,12.3
	C25.5,12.3,25.5,12.3,25.5,12.3l-0.2-0.1c0,0-0.1-0.1-0.1-0.1c0,0,0,0,0,0c0,0,0,0,0,0c0,0,0,0,0,0c0,0,0,0,0,0c0,0-0.1-0.1-0.1-0.1
	c0,0,0-0.1-0.1-0.1c0,0,0,0-0.1-0.1c0,0,0-0.1-0.1-0.1c0,0,0-0.1,0-0.1c0,0,0-0.1,0-0.1c0,0,0-0.1,0-0.1c0,0,0-0.1,0-0.1
	c0,0,0-0.1,0-0.1c0-0.1,0-0.1,0-0.1c0,0,0,0,0-0.1c0,0,0-0.1,0-0.1l0-0.1c0,0,0-0.1,0-0.1l0,0c0,0,0,0,0.1,0c0,0,0,0.1,0,0.1
	c0,0,0,0.1,0,0.1c0,0,0,0.1,0,0.1c0,0.1,0,0.1,0,0.2c0,0,0,0.1,0,0.1c0,0,0,0.1,0,0.1c0,0,0,0.1,0,0.2c0,0.1,0,0.1,0,0.2
	c0,0,0,0.1,0,0.1c0,0,0,0.1,0,0.1c0,0,0,0.1,0,0.1c0,0,0,0,0,0.1c0,0,0,0.1,0.1,0.1c0,0,0,0.1,0.1,0.1l0,0v0c0,0,0,0,0,0
	c0,0,0,0,0,0c0,0,0,0,0,0L25.5,12.3C25.4,12.3,25.5,12.3,25.5,12.3C25.5,12.3,25.5,12.3,25.5,12.3z M34.8,10.5L34.8,10.5
	c0-0.1,0-0.1,0-0.1c0,0,0,0,0,0c0,0,0,0,0,0c0,0,0,0,0,0c0,0,0,0,0-0.1v-0.1c0,0,0,0,0-0.1c0,0,0,0,0,0v0c0,0,0-0.1,0-0.2l0-0.1
	c0,0,0,0,0,0l0,0c0,0,0,0,0,0c0,0,0,0,0,0v0c0,0,0,0,0,0.1c0,0,0,0,0,0.1c0,0,0,0,0,0.1v0c0,0,0,0,0,0v0c0,0,0,0,0,0v0c0,0,0,0,0,0
	c0,0,0,0,0,0c0,0,0,0,0,0.1c0,0,0,0,0,0C34.7,10.4,34.7,10.4,34.8,10.5C34.7,10.5,34.7,10.5,34.8,10.5L34.8,10.5L34.8,10.5
	L34.8,10.5C34.7,10.6,34.7,10.5,34.8,10.5z M34.2,11.8C34.2,11.8,34.2,11.8,34.2,11.8c0-0.1,0-0.1,0.1-0.1c0,0,0,0,0,0c0,0,0,0,0,0
	l0.1-0.1c0-0.1,0-0.1,0-0.2c0,0,0,0,0-0.1c0,0,0,0,0-0.1c0,0,0-0.1,0.1-0.1l0,0c0,0,0,0,0-0.1c0,0,0-0.1,0-0.1c0,0,0-0.1,0-0.1
	c0,0,0,0,0-0.1c0,0,0,0,0-0.1c0,0,0,0,0-0.1c0,0,0,0,0-0.1c0,0,0,0,0,0c0,0,0,0,0,0c0,0,0,0,0,0.1c0,0,0,0,0,0.1c0,0,0,0,0,0.1
	l0,0.1c0,0.1,0,0.1-0.1,0.2c0,0.1-0.1,0.1-0.1,0.2c0,0.1-0.1,0.1-0.1,0.2c0,0,0,0.1,0,0.1c0,0,0,0,0,0c0,0,0,0,0,0c0,0,0,0,0,0
	c0,0,0,0,0,0c0,0,0,0,0,0.1C34.4,11.7,34.4,11.8,34.2,11.8C34.3,11.8,34.3,11.8,34.2,11.8C34.2,11.9,34.2,11.9,34.2,11.8z
	 M39.1,11.1C39.1,11,39.1,11,39.1,11.1c0-0.1,0-0.1,0-0.1c0-0.1,0.1-0.1,0.1-0.1l0.2-0.1c0,0,0,0,0,0c0,0,0,0.1-0.1,0.1
	c0,0,0,0,0,0.1c0,0,0,0,0,0l0,0l0,0.1C39.2,11.1,39.1,11.1,39.1,11.1z M38.7,12C38.7,12,38.7,12,38.7,12c0,0,0-0.1,0-0.1
	c0,0,0,0,0-0.1c0,0,0-0.1,0-0.1c0,0,0,0,0-0.1c0,0,0,0,0-0.1c0,0,0,0,0-0.1c0,0,0,0,0-0.1c0,0,0-0.1,0-0.1c0,0,0,0,0,0c0,0,0,0,0,0
	c0,0,0,0,0-0.1c0,0,0,0,0-0.1c0,0,0,0,0,0c0,0,0,0,0,0c0,0,0-0.1,0-0.1h0c0,0,0,0,0,0c0,0,0,0,0,0.1c0,0,0,0,0,0c0,0,0,0,0,0l0,0.1
	c0,0,0,0.1-0.1,0.1c0,0,0,0-0.1,0.1c0,0,0,0,0,0c0,0,0,0,0,0c0,0,0,0.1,0,0.1c0,0,0,0,0,0s0,0,0,0c0,0,0,0,0,0.1c0,0,0,0,0,0
	c0,0,0,0,0,0c0,0,0,0,0,0C38.8,11.9,38.8,11.9,38.7,12C38.7,12,38.7,12,38.7,12z M43.2,11.6C43.2,11.6,43.2,11.6,43.2,11.6
	c0,0.1,0,0.1,0,0.1c0,0,0,0,0,0c0,0,0,0,0,0c0,0,0,0,0,0c0,0,0,0,0,0s0,0,0,0.1l0,0c0,0,0,0,0,0l0,0c0,0,0,0,0,0c0,0,0,0,0-0.1
	c0,0,0,0,0,0c0,0,0,0,0-0.1c0,0,0,0,0-0.1C43.1,11.7,43.1,11.7,43.2,11.6C43.1,11.6,43.1,11.6,43.2,11.6
	C43.1,11.6,43.1,11.6,43.2,11.6L43.2,11.6z M43.7,10.9C43.7,10.9,43.7,10.9,43.7,10.9c0,0.1,0,0.1-0.1,0.1c0,0,0,0,0,0.1
	c0,0,0,0,0,0.1h0l0,0c0,0,0,0,0,0c0,0,0,0,0,0l0,0c0,0,0,0,0,0c0,0,0,0,0,0c0,0,0,0,0,0c0,0,0,0,0,0l0,0c0,0,0-0.1,0-0.1
	c0,0,0,0,0,0l0-0.1l0,0l0,0v0l0,0c0,0,0-0.1,0.1-0.1C43.6,10.9,43.6,10.9,43.7,10.9L43.7,10.9C43.7,10.8,43.7,10.8,43.7,10.9
	L43.7,10.9z M43.9,10.5C43.9,10.4,43.9,10.4,43.9,10.5L43.9,10.5c0.1-0.1,0.1-0.1,0.1,0c0,0,0,0,0,0C44,10.5,44,10.5,43.9,10.5
	c0,0.1,0,0.1,0,0.2c0,0,0,0-0.1,0.1c0,0,0,0,0,0.1c0,0,0,0,0,0c0,0,0,0,0,0c0,0,0,0,0-0.1c0,0,0,0,0.1-0.1L43.9,10.5
	C43.9,10.5,43.9,10.5,43.9,10.5L43.9,10.5z M47.7,9.8C47.7,9.8,47.7,9.7,47.7,9.8c0-0.1,0-0.1,0-0.2c0,0,0.1-0.1,0.1-0.1
	c0,0,0.1-0.1,0.1-0.1L48,9.3c0,0,0.1-0.1,0.1-0.1h0h0l0,0c0,0,0,0,0,0c0,0,0,0.1,0,0.1c0,0-0.1,0.1-0.1,0.1c0,0-0.1,0.1-0.1,0.1
	c0,0-0.1,0.1-0.1,0.1C47.7,9.7,47.7,9.8,47.7,9.8C47.7,9.8,47.7,9.8,47.7,9.8L47.7,9.8z M47.1,10.7C47.1,10.6,47.1,10.6,47.1,10.7
	c0-0.1,0.1-0.1,0.1-0.1c0-0.1,0-0.1,0.1-0.1l0.1-0.1l0,0c0,0,0-0.1,0-0.1c0,0,0-0.1,0-0.1l0.1-0.1c0,0,0,0,0.1,0c0,0,0,0,0,0
	c0,0,0,0,0,0.1l-0.1,0.1c0,0-0.1,0.1-0.1,0.1c0,0,0,0.1-0.1,0.1c0,0,0,0,0,0l0,0.1l-0.1,0.1c0,0,0,0,0,0.1
	C47.2,10.5,47.2,10.6,47.1,10.7L47.1,10.7L47.1,10.7C47.1,10.7,47.1,10.7,47.1,10.7L47.1,10.7z M46.6,11.5L46.6,11.5
	C46.6,11.6,46.5,11.6,46.6,11.5c0,0.1-0.1,0.1-0.1,0.1c0,0,0,0,0,0C46.5,11.7,46.5,11.6,46.6,11.5C46.5,11.6,46.5,11.6,46.6,11.5
	L46.6,11.5L46.6,11.5C46.6,11.5,46.6,11.5,46.6,11.5L46.6,11.5z M52.2,10.6L52.2,10.6l0.1-0.2c0-0.1,0.1-0.1,0.2-0.2
	c0.1-0.1,0.1-0.1,0.2-0.2c0,0,0,0.1-0.1,0.2c0,0,0,0.1-0.1,0.1c0,0,0,0,0,0c0,0,0,0,0,0c0,0,0,0.1-0.1,0.1
	C52.2,10.6,52.2,10.6,52.2,10.6L52.2,10.6z M51.5,11.7C51.5,11.6,51.5,11.6,51.5,11.7c0.1-0.1,0.1-0.1,0.1-0.1c0,0,0,0,0.1-0.1
	c0,0,0,0,0-0.1c0,0,0,0,0-0.1c0,0,0-0.1,0-0.1c0,0,0-0.1,0.1-0.1c0,0,0,0,0,0c0,0,0,0,0,0c0,0,0-0.1,0-0.1c0,0,0,0,0-0.1
	c0,0,0,0,0.1,0c0,0,0,0,0.1,0c0,0,0,0,0-0.1c0,0,0,0,0-0.1c0,0,0,0,0,0c0,0,0,0,0,0c0,0,0,0,0,0.1c0,0,0,0,0,0.1c0,0,0,0,0,0.1
	c0,0,0,0.1-0.1,0.1c0,0.1,0,0.1-0.1,0.2c0,0,0,0.1-0.1,0.1c0,0,0,0.1-0.1,0.1l-0.1,0.1c0,0,0,0.1,0,0.1c0,0,0,0.1-0.1,0.1
	c0,0,0,0,0,0.1c0,0,0,0,0,0.1C51.6,11.6,51.6,11.7,51.5,11.7C51.5,11.7,51.5,11.7,51.5,11.7C51.5,11.8,51.5,11.8,51.5,11.7
	C51.5,11.7,51.5,11.7,51.5,11.7z M55.4,10.8C55.4,10.8,55.4,10.8,55.4,10.8l0-0.1l0.2-0.2c0.1-0.1,0.1-0.1,0.2-0.2c0,0,0,0,0,0
	s-0.1,0.1-0.1,0.1c0,0.1,0,0,0,0.1l0,0c0,0,0,0,0,0c0,0,0,0.1-0.1,0.1c0,0,0,0,0,0L55.4,10.8C55.4,10.8,55.4,10.8,55.4,10.8
	L55.4,10.8z M55.1,11.7C55.1,11.8,55.1,11.8,55.1,11.7l0,0.1h0c0,0,0,0,0,0c0,0,0,0,0,0c0,0,0,0,0,0c0,0,0,0,0,0s0,0,0,0
	c0,0,0,0,0,0c0,0,0,0,0,0l0-0.1C55,11.9,55.1,11.8,55.1,11.7L55.1,11.7C55.1,11.7,55.1,11.7,55.1,11.7L55.1,11.7l0-0.1
	C55.1,11.6,55.1,11.6,55.1,11.7C55.1,11.7,55.1,11.7,55.1,11.7L55.1,11.7z M57.5,12.2l-0.3,0.2c-0.1,0.1-0.2,0.1-0.3,0.1
	c-0.1,0.1-0.2,0.1-0.4,0.1c-0.1,0-0.2,0-0.3,0c-0.1,0-0.1-0.1-0.2-0.1c0,0-0.1-0.1-0.1-0.1c0-0.1,0-0.1,0-0.2c0-0.1,0-0.3,0-0.4
	c0-0.1,0-0.1,0-0.2c0-0.1,0-0.1,0.1-0.2c0-0.1,0-0.1,0.1-0.1c0,0,0-0.1,0-0.1l0-0.1l0-0.1c0.1,0.2,0.3,0.3,0.4,0.4
	c0.4,0.2,0.8,0.4,1.2,0.4C57.8,12,57.7,12.1,57.5,12.2L57.5,12.2z M58.4,11c0,0.2-0.1,0.3-0.2,0.5c-0.2,0-0.4,0-0.5-0.1
	c-0.2,0-0.4-0.1-0.5-0.2c0,0-0.1,0-0.1-0.1L57,11c0,0,0,0,0,0c0,0,0,0-0.1-0.1l-0.1,0l-0.1-0.1c0,0,0-0.1-0.1-0.1
	c0.1-0.1,0.3-0.1,0.4-0.1c0,0,0.1,0,0.1,0h0.1c0,0,0.1,0,0.1-0.1c0,0,0,0,0-0.1c0,0,0-0.1,0-0.1c0-0.1,0-0.1-0.1-0.2
	c0-0.1-0.1-0.1-0.1-0.2c0,0-0.1-0.1-0.1-0.1h0c-0.2,0-0.3,0-0.5,0c0,0,0-0.1,0.1-0.1c0.1-0.2,0.3-0.4,0.5-0.5
	c0.1-0.1,0.3-0.1,0.4-0.1c0.1,0,0.3,0,0.4,0c0.1,0,0.2,0.1,0.3,0.2c0.1,0.1,0.1,0.2,0.2,0.3c0.1,0.2,0.1,0.5,0.1,0.8
	C58.5,10.6,58.5,10.8,58.4,11L58.4,11z M61.1,13c-0.2-0.1-0.3-0.2-0.3-0.4c0.1-0.3,0.2-0.5,0.4-0.7c0.4-0.4,0.9-0.6,1.5-0.8
	c-0.1,0.4-0.2,0.8-0.4,1.1c-0.1,0.3-0.3,0.5-0.6,0.7C61.6,13,61.4,13.1,61.1,13z M63.3,12.4C63.3,12.5,63.3,12.5,63.3,12.4
	c0,0.1,0,0.1,0,0.1c0,0,0,0.1,0,0.1c0,0,0,0,0,0c0,0,0,0,0,0c0,0,0,0,0,0c0,0,0,0,0,0c0,0,0,0.1-0.1,0.1c0,0,0,0,0,0.1c0,0,0,0,0,0
	l0,0c0,0-0.1,0.1-0.1,0.1c0,0,0,0,0,0c0,0,0,0,0,0c0,0,0,0,0,0c0,0,0,0,0,0h0c0,0,0,0,0,0c0,0,0,0,0,0s0,0,0,0c0,0,0,0-0.1,0.1
	c0,0-0.1,0-0.1,0.1l-0.1,0c0,0,0,0-0.1,0l0,0l0,0c0,0,0,0,0,0c0,0,0,0,0,0l0,0c0,0-0.1,0-0.1,0c0,0,0,0-0.1,0h0h0c0,0,0,0,0,0H62
	c0,0,0,0,0,0c0,0,0,0,0,0c0,0,0,0,0,0h0c0,0,0,0,0.1,0l0.1,0c0,0,0.1,0,0.1,0c0,0,0.1,0,0.1-0.1l0.1,0c0,0,0,0,0,0l0,0l0,0l0-0.1
	c0,0,0,0,0.1-0.1c0,0,0,0,0,0l0,0c0,0,0,0,0,0c0,0,0,0,0,0c0,0,0,0,0,0s0,0,0,0c0,0,0,0,0,0l0,0c0,0,0.1,0,0.1-0.1c0,0,0,0,0,0
	c0,0,0,0,0,0c0,0,0,0,0,0c0,0,0,0,0,0l0-0.1c0,0,0,0,0.1-0.1c0,0,0,0,0,0c0,0,0,0,0,0c0,0,0-0.1,0-0.1
	C63.2,12.4,63.2,12.4,63.3,12.4L63.3,12.4c-0.1-0.1-0.1-0.1-0.1-0.1C63.3,12.3,63.3,12.3,63.3,12.4C63.3,12.4,63.3,12.4,63.3,12.4
	L63.3,12.4z M63.7,11.4c0,0.1,0,0.2-0.1,0.3c0,0.1,0,0.1,0,0.1c0,0,0,0,0,0.1c0,0,0,0,0,0.1c0,0,0,0.1-0.1,0.1c0,0,0,0,0,0
	c0,0,0,0,0,0l0,0.1l-0.1,0.1c0,0,0,0.1-0.1,0.1c0,0,0,0,0,0c0,0,0,0,0-0.1v-0.1c0,0,0-0.1,0-0.1c0-0.1,0.1-0.1,0.1-0.2
	c0-0.1,0-0.1,0.1-0.2c0-0.1,0.1-0.1,0.1-0.2C63.6,11.4,63.7,11.4,63.7,11.4C63.7,11.3,63.7,11.3,63.7,11.4
	C63.7,11.3,63.7,11.3,63.7,11.4L63.7,11.4z"/>
<path class="st0" d="M85.3,10.3l-0.6,0.4c-0.3,0.2-0.6,0.4-0.9,0.6c-0.3,0.2-0.7,0.4-1,0.6c-0.3,0.2-0.6,0.3-0.9,0.3
	c0,0-0.1,0-0.1,0c0,0-0.1,0-0.1,0c-0.1,0-0.3,0-0.4-0.1c-0.1,0-0.2-0.1-0.2-0.2c-0.1-0.1-0.1-0.1-0.1-0.2c0,0,0-0.1,0-0.1
	c0-0.1,0-0.1,0-0.2l0.1-0.2c0-0.1,0-0.2,0.1-0.2c0-0.1,0.1-0.1,0.1-0.2c0,0,0.1,0,0.1,0c0,0,0.1,0,0.1,0l0.2,0c0.1,0,0.2,0,0.2,0
	c0.3,0,0.5-0.1,0.8-0.2c0.2-0.1,0.4-0.2,0.5-0.4c0,0,0-0.1,0-0.1c0,0,0,0,0-0.1c0-0.1,0-0.2-0.1-0.3c-0.1-0.1-0.3-0.3-0.4-0.3
	c-0.1,0-0.2-0.1-0.3-0.1c-0.1,0-0.2,0-0.3,0c-0.1,0-0.3,0.1-0.4,0.1c-0.2,0.1-0.3,0.1-0.4,0.2c0,0-0.1,0-0.1,0.1l-0.1,0
	c-0.1,0.1-0.2,0.2-0.3,0.3c-0.1,0.1-0.3,0.3-0.4,0.5c-0.1,0.2-0.2,0.3-0.3,0.5l-0.4,0.3c-0.2,0.2-0.5,0.4-0.8,0.6
	c-0.3,0.2-0.6,0.4-0.8,0.5c-0.3,0.2-0.5,0.3-0.8,0.4c-0.2,0.1-0.4,0.2-0.6,0.2c-0.3,0-0.5-0.1-0.7-0.3c-0.2-0.2-0.3-0.5-0.3-0.7
	c0-0.1,0-0.3,0-0.4c0-0.1,0-0.2,0-0.3c0-0.2,0.1-0.3,0.2-0.5c0.1-0.2,0.2-0.3,0.2-0.5c0.1-0.2,0.2-0.3,0.2-0.4
	c0.1-0.1,0.1-0.2,0.2-0.3l0.4-0.6c0.7-0.4,1.4-0.9,2.1-1.4c0.4-0.3,0.8-0.7,1.2-1.1c0.2-0.2,0.4-0.5,0.5-0.8
	c0.1-0.2,0.1-0.4,0.1-0.6c0-0.1-0.1-0.3-0.2-0.4c-0.1-0.1-0.2-0.1-0.2-0.2c-0.1,0-0.2-0.1-0.3,0c-0.1,0-0.2,0-0.3,0.1
	c-0.1,0-0.2,0.1-0.3,0.1c-0.8,0.6-1.6,1.2-2.3,2c-0.6,0.6-1.1,1.3-1.6,2.1c0,0-0.1,0.1-0.1,0.1c0,0-0.1,0.1-0.1,0.1
	c-0.1-0.2-0.3-0.3-0.5-0.3c-0.2,0-0.5,0-0.7,0.1c-0.3,0.1-0.5,0.2-0.7,0.3c-0.2,0.1-0.4,0.2-0.6,0.3l-0.3,0.2
	c-0.1,0.1-0.2,0.1-0.2,0.2c-0.3,0.3-0.6,0.5-0.9,0.8c-0.2,0.2-0.3,0.4-0.5,0.6c-0.2,0.3-0.2,0.6,0,0.9c0.1,0.1,0.2,0.2,0.4,0.3
	c0.3,0.1,0.6,0.1,0.8-0.1c0.1-0.1,0.3-0.2,0.4-0.3l0.5-0.4c0.2-0.1,0.3-0.3,0.5-0.4c0.4-0.3,0.8-0.7,1.3-1.1
	c-0.1,0.2-0.2,0.5-0.2,0.7c-0.1,0.2-0.1,0.4-0.1,0.7c0,0.2,0,0.4,0.1,0.6c0.1,0.3,0.2,0.5,0.5,0.7c0.2,0.1,0.4,0.3,0.6,0.3
	c0.3,0.1,0.5,0.1,0.8,0.1c0.2,0,0.4,0,0.6-0.1c0.3-0.1,0.5-0.2,0.7-0.3c0.3-0.1,0.5-0.3,0.8-0.5c0.3-0.2,0.5-0.4,0.8-0.5
	c0.2-0.1,0.3-0.2,0.5-0.3c0,0.1,0,0.1,0,0.2c0,0.2,0.1,0.4,0.3,0.6c0.1,0.1,0.2,0.2,0.4,0.3c0.1,0.1,0.3,0.2,0.4,0.2
	c0.2,0,0.3,0.1,0.5,0.1c0.2,0,0.5,0,0.7-0.1c0.4-0.1,0.8-0.3,1.2-0.5c0.4-0.2,0.9-0.5,1.2-0.8c0.4-0.3,0.9-0.6,1.3-1L85.3,10.3z
	 M77.2,6.7C77.2,6.7,77.2,6.7,77.2,6.7c0-0.1,0.1-0.1,0.1-0.1c0,0,0,0,0-0.1c0,0,0,0,0,0c0,0,0,0,0,0c0,0,0,0,0,0c0,0,0,0,0,0
	c0.1-0.1,0.1-0.1,0.2-0.2c0,0,0.1-0.1,0.1-0.1c0,0,0.1,0,0.1-0.1c0,0,0,0,0,0c0,0,0,0,0,0c0,0,0.1,0,0.1-0.1c0,0,0.1-0.1,0.1-0.1
	c0,0,0.1-0.1,0.1-0.1c0,0,0.1-0.1,0.1-0.1l0.1-0.1l0.1-0.1c0.1,0,0.1-0.1,0.2-0.1c0.1-0.1,0.2-0.1,0.2-0.2c0.1,0,0.1-0.1,0.2-0.1
	c0,0,0.1-0.1,0.1-0.1c0,0,0.1-0.1,0.2-0.1c0.1-0.1,0.2-0.1,0.2-0.1c0.1,0,0.1,0,0,0c0,0.1-0.1,0.1-0.1,0.1c-0.1,0-0.1,0.1-0.1,0.1
	c0,0-0.1,0.1-0.2,0.1C79.1,5,79,5,79,5.1c0,0-0.1,0.1-0.1,0.1c0,0-0.1,0.1-0.1,0.1c0,0,0,0.1-0.1,0.1c0,0-0.1,0.1-0.1,0.1
	c0,0-0.1,0-0.1,0.1c0,0,0,0,0,0.1c0,0-0.1,0.1-0.1,0.1c0,0,0,0-0.1,0l-0.1,0c0,0,0,0-0.1,0.1L78,6L78,6.1c0,0-0.1,0.1-0.1,0.1
	c0,0,0,0.1-0.1,0.1c0,0,0,0,0,0.1c0,0,0,0-0.1,0l-0.1,0c0,0-0.1,0.1-0.1,0.1l-0.1,0.1c0,0-0.1,0.1-0.1,0.1c0,0,0,0,0,0
	C77.3,6.7,77.3,6.7,77.2,6.7C77.2,6.7,77.2,6.7,77.2,6.7C77.2,6.7,77.2,6.7,77.2,6.7C77.2,6.7,77.1,6.7,77.2,6.7z M78,7.1
	c0.3-0.3,0.5-0.6,0.8-0.9c0.3-0.3,0.6-0.6,0.8-0.8c0.2-0.2,0.4-0.3,0.6-0.5c0.2-0.1,0.2,0,0.2,0.1c0,0.2-0.1,0.3-0.2,0.5
	c-0.1,0.2-0.3,0.4-0.4,0.5c-0.2,0.2-0.4,0.4-0.5,0.6c-0.2,0.2-0.4,0.4-0.6,0.5c-0.5,0.4-1.1,0.8-1.7,1.2c0-0.1,0.2-0.2,0.3-0.4
	L78,7.1z M76,8.2C76,8.1,76,8.1,76,8.2L76,8.2c0-0.1,0-0.1,0-0.1c0,0,0,0,0,0l0-0.1l0-0.1l0-0.1l0,0c0,0,0,0,0,0c0,0,0,0,0,0
	l0.1-0.1l0-0.1c0,0,0,0,0-0.1c0,0,0,0,0,0c0,0,0,0,0-0.1c0,0,0.1,0,0.1-0.1l0-0.1l0.1-0.1c0,0,0,0,0.1-0.1c0,0,0,0,0.1-0.1
	c0,0,0.1-0.1,0.1-0.1c0,0,0-0.1,0.1-0.1c0,0,0,0,0,0l0,0c0.1,0,0.1,0,0.1,0c0,0,0,0,0,0.1c0,0,0,0,0,0l-0.1,0.1l-0.1,0.1l-0.1,0.1
	c0,0-0.1,0.1-0.1,0.1c0,0-0.1,0.1-0.1,0.1c0,0-0.1,0.1-0.1,0.1c0,0-0.1,0.1-0.1,0.1c0,0-0.1,0.1-0.1,0.1c0,0,0,0,0,0c0,0,0,0,0,0
	L76,8.2C76.1,8.1,76.1,8.1,76,8.2C76.1,8.1,76.1,8.1,76,8.2l0,0.1l0,0C76,8.2,76,8.2,76,8.2C76,8.2,76,8.2,76,8.2z M72.7,9.5
	C72.7,9.5,72.7,9.5,72.7,9.5c0-0.1,0-0.1,0.1-0.1c0,0,0,0,0,0c0,0,0,0,0,0c0,0,0,0,0.1,0L73,9.3c0,0,0,0,0,0c0,0,0,0,0,0h0
	c0,0,0,0,0,0c0,0,0,0,0.1,0c0,0,0,0,0.1,0h0c0,0,0,0,0,0h0c0,0,0,0,0,0c0,0,0,0-0.1,0c0,0-0.1,0-0.1,0.1c-0.1,0-0.1,0-0.1,0.1
	c0,0-0.1,0-0.1,0.1L72.7,9.5L72.7,9.5C72.7,9.6,72.7,9.6,72.7,9.5L72.7,9.5z M72,10.1L72,10.1c0.1-0.1,0.1-0.1,0.1-0.1
	c0,0,0,0,0.1-0.1l0.1-0.1l0.1-0.1h0c0,0,0,0,0,0l0,0c0,0,0,0,0,0c0,0,0,0,0,0l0,0c0,0,0.1-0.1,0.1-0.1h0c0,0,0,0,0,0
	c0,0,0,0.1,0,0.1l-0.1,0.1l0,0c0,0,0,0,0,0l-0.1,0v0c0,0,0,0,0,0c0,0,0,0,0,0l-0.1,0c0,0,0,0,0,0L72,10.1L72,10.1
	C72,10.1,72,10.1,72,10.1C72,10.1,72,10.1,72,10.1L72,10.1z M71.3,10.7C71.3,10.7,71.4,10.7,71.3,10.7L71.3,10.7
	c0.1-0.1,0.2-0.2,0.2-0.2c0,0,0,0,0,0c0,0,0,0,0,0c0-0.1,0.1-0.1,0.1-0.1c0,0,0,0,0,0c0,0,0,0,0,0c0,0,0,0,0,0c0,0,0,0,0,0
	c0,0,0,0,0,0c0,0,0,0,0,0.1c0,0,0,0-0.1,0c0,0,0,0,0,0C71.4,10.7,71.4,10.7,71.3,10.7C71.4,10.7,71.4,10.7,71.3,10.7L71.3,10.7
	L71.3,10.7L71.3,10.7C71.3,10.8,71.3,10.7,71.3,10.7L71.3,10.7z M74.7,9.6c-0.1,0.1-0.3,0.2-0.5,0.3l-0.5,0.4l-0.6,0.5
	c-0.2,0.2-0.4,0.3-0.5,0.4c-0.2,0.2-0.4,0.3-0.5,0.4l-0.3,0.2c-0.1,0-0.1,0.1-0.2,0.1c0-0.1,0-0.3,0.1-0.4c0.1-0.2,0.3-0.4,0.4-0.5
	c0.2-0.2,0.4-0.4,0.6-0.6c0.2-0.2,0.5-0.4,0.7-0.6l0.2-0.1l0.5-0.3c0.1-0.1,0.3-0.2,0.5-0.2c0.1-0.1,0.2-0.1,0.3,0
	c0,0.1,0,0.1,0,0.2L74.7,9.6z M81.3,9.6C81.3,9.6,81.3,9.6,81.3,9.6C81.3,9.5,81.3,9.5,81.3,9.6L81.3,9.6L81.3,9.6
	C81.3,9.5,81.4,9.5,81.3,9.6c0.1-0.1,0.2-0.1,0.2-0.1c0,0,0.1,0,0.1,0c0,0,0.1,0,0.1,0c0,0,0.1,0,0.1,0c0,0,0,0,0,0h0c0,0,0,0,0,0
	c0,0,0,0,0,0c0,0,0,0,0,0c0,0,0,0,0,0l-0.1,0c0,0-0.1,0-0.1,0c0,0,0,0-0.1,0h0c0,0,0,0,0,0c0,0,0,0,0,0c0,0,0,0,0,0
	C81.4,9.5,81.3,9.5,81.3,9.6L81.3,9.6L81.3,9.6C81.3,9.6,81.3,9.6,81.3,9.6z M81.4,10.3C81.4,10.3,81.4,10.3,81.4,10.3
	c0.1-0.1,0.2-0.2,0.3-0.3c0.1-0.1,0.2-0.2,0.3-0.2c0.1-0.1,0.3-0.2,0.4-0.2c0.1,0,0.2,0,0.2,0.1l0,0.1c0,0.1,0,0.1-0.1,0.1
	c-0.1,0.1-0.2,0.2-0.4,0.2c-0.2,0.1-0.4,0.2-0.6,0.2l-0.3,0L81.4,10.3C81.3,10.4,81.3,10.4,81.4,10.3C81.4,10.4,81.4,10.3,81.4,10.3
	L81.4,10.3z M80.5,10.1C80.5,10.1,80.6,10.1,80.5,10.1l0.1-0.1c0,0,0,0,0,0c0,0,0,0,0,0c0,0,0,0,0.1-0.1c0,0,0,0,0,0l0,0l0,0
	c0,0,0,0,0,0h0c0,0,0,0,0,0c0,0,0,0,0,0c0,0,0,0,0,0c0,0,0,0,0,0c0,0,0.1-0.1,0.1-0.1h0h0c0,0,0,0,0,0c0,0,0,0,0,0c0,0,0,0,0,0h0
	l0,0c0,0,0,0-0.1,0c0,0,0,0,0,0l0,0c0,0,0,0,0,0c0,0,0,0,0,0c0,0,0,0,0,0h0c0,0,0,0,0,0h0l0,0l0,0l-0.1,0c0,0,0,0,0,0c0,0,0,0-0.1,0
	L80.5,10.1C80.6,10.1,80.6,10.1,80.5,10.1L80.5,10.1C80.6,10.1,80.5,10.1,80.5,10.1L80.5,10.1z M80.1,10.7
	C80.1,10.6,80.1,10.6,80.1,10.7c0-0.1,0.1-0.1,0.1-0.2c0,0,0,0,0,0c0,0,0,0,0,0h0v0c0,0,0,0,0,0.1L80.1,10.7
	C80.2,10.6,80.2,10.6,80.1,10.7C80.2,10.6,80.2,10.6,80.1,10.7L80.1,10.7L80.1,10.7L80.1,10.7L80.1,10.7z"/>
<path class="st0" d="M10,30.7c-0.6,0.2-1.2,0.4-1.9,0.5c-0.7,0.1-1.3,0.2-2,0.2c-0.6,0-1.2-0.1-1.8-0.2c-0.5-0.1-1.1-0.3-1.6-0.6
	c-0.9-0.5-1.6-1.2-2-2.1C0.2,27.5,0,26.5,0,25.5c0-1.6,0.6-3.1,1.8-4.1c0.6-0.5,1.2-1,2-1.2c0.8-0.3,1.7-0.4,2.5-0.4
	c0.7,0,1.4,0,2,0.2c0.6,0.1,1.2,0.3,1.7,0.5v3H8.5l-0.4-2.1L7.8,21C7.7,21,7.5,21,7.4,21c-0.2,0-0.3,0-0.5,0c-1,0-2,0.4-2.6,1.2
	c-0.7,0.8-1,1.9-1,3.3c0,1.4,0.3,2.5,1,3.3c0.6,0.8,1.6,1.3,2.6,1.2c0.2,0,0.4,0,0.5,0s0.3,0,0.4-0.1l0.3-0.3l0.4-2.2h1.5L10,30.7z"
	/>
<path class="st0" d="M16.7,19.8h2.4L23,30l1,0.1v1h-5.4v-1l1.1-0.1l0.1-0.2L19,27.3h-3.6l-0.9,2.5l0.2,0.2l1.1,0.1v1h-4v-1l1.1-0.1
	L16.7,19.8z M17.1,22.5l-1.3,3.7h2.7L17.1,22.5z"/>
<path class="st0" d="M25.4,31.1v-1l1.2-0.1l0.2-0.3v-8.6l-0.2-0.2l-1.2-0.1v-0.9h5.4v0.5l2.3,7l2.3-7v-0.5h5.4v0.9l-1.2,0.1
	l-0.2,0.2v8.6l0.2,0.3l1.2,0.1v1h-5.4v-1l1-0.1l0.1-0.3v-8.6h0l-3.3,10h-1.7l-3.3-10h0v8.6l0.2,0.3l1.1,0.1v1L25.4,31.1z"/>
<path class="st0" d="M42.9,31.1v-1L44,30l0.3-0.3v-8.6L44,20.9l-1.1-0.1v-1h9.2v2.8h-1.4l-0.3-1.5L50.1,21h-3v3.7h1.8l0.2-0.2
	l0.2-1.2h1.2v4.1h-1.2l-0.2-1.2l-0.2-0.2h-1.8v4h3.5l0.2-0.3l0.3-1.8h1.4v3.2H42.9z"/>
<path class="st0" d="M55.1,19.9h6.1c1.3,0,2.3,0.2,2.9,0.7c0.7,0.5,1.1,1.2,1,2.1c0,0.7-0.3,1.4-0.8,1.9c-0.5,0.5-1.3,0.8-2.4,0.9
	c0.3,0.1,0.6,0.2,0.9,0.3c0.3,0.1,0.5,0.3,0.7,0.4c0.4,0.4,0.8,1.1,1.2,2.1l0.2,0.5c0.1,0.4,0.4,0.7,0.7,1c0.4,0.2,0.8,0.3,1.3,0.3
	h0.2v1c-0.5,0-0.9,0.1-1.2,0.1c-0.4,0-0.7,0-1,0c-0.5,0-1-0.1-1.4-0.2c-0.4-0.1-0.7-0.4-1-0.6c-0.3-0.3-0.5-0.9-0.7-1.7
	c-0.1-0.4-0.2-0.6-0.2-0.8c-0.1-0.5-0.4-0.9-0.8-1.3c-0.4-0.3-0.8-0.4-1.3-0.4h-0.2v3.5l0.3,0.3l1.1,0.1v1h-5.6v-1l1.1-0.1l0.3-0.3
	v-8.6l-0.3-0.2l-1.1-0.1V19.9z M59.4,21v4.1h0.2h0.2c0.8,0,1.4-0.2,1.8-0.5c0.4-0.4,0.6-1,0.6-1.6c0-0.5-0.2-1.1-0.5-1.4
	c-0.4-0.4-0.9-0.6-1.5-0.5L59.4,21z"/>
<path class="st0" d="M67.6,25.4c0-1.7,0.6-3.1,1.7-4.2c1.1-1.1,2.6-1.6,4.5-1.6c0.7,0,1.4,0.1,2.1,0.3c0.6,0.2,1.2,0.5,1.7,0.9
	c0.7,0.5,1.3,1.2,1.7,2c0.4,0.8,0.6,1.7,0.6,2.6c0.1,1.6-0.6,3.2-1.8,4.3c-1.2,1.1-2.7,1.7-4.5,1.7s-3.3-0.6-4.4-1.7
	C68.2,28.6,67.6,27.2,67.6,25.4z M73.8,20.9c-0.9,0-1.6,0.4-2.1,1.3c-0.5,0.8-0.8,2-0.8,3.5c0,1.4,0.3,2.5,0.8,3.3
	c0.5,0.8,1.2,1.3,2.1,1.3c0.8,0,1.5-0.4,2-1.3c0.5-0.9,0.8-2,0.8-3.5c0-1.4-0.3-2.5-0.8-3.3C75.3,21.3,74.6,20.9,73.8,20.9z"/>
<path class="st0" d="M81.6,30.7v-3.1h1.6l0.4,2.1l0.2,0.3c0.2,0,0.4,0.1,0.6,0.1s0.4,0,0.6,0c0.5,0,1.1-0.1,1.5-0.4
	c0.4-0.3,0.6-0.7,0.6-1.1c0-0.1,0-0.3-0.1-0.4c-0.1-0.1-0.1-0.3-0.2-0.4c-0.3-0.3-0.8-0.6-1.7-0.9c-0.4-0.2-0.7-0.3-1-0.4
	c-0.7-0.3-1.4-0.8-1.9-1.3c-0.4-0.5-0.6-1.2-0.6-1.8c0-1,0.4-1.9,1.2-2.6c0.8-0.6,1.8-1,3.2-1c0.6,0,1.2,0.1,1.7,0.2
	c0.6,0.1,1.2,0.3,1.8,0.5v2.8h-1.6l-0.3-1.9l-0.2-0.2c-0.2,0-0.3-0.1-0.5-0.1c-0.2,0-0.4,0-0.5,0c-0.5,0-1,0.1-1.5,0.4
	c-0.4,0.2-0.6,0.7-0.5,1.1c0,0.6,0.7,1.2,2.1,1.8c0.2,0.1,0.3,0.1,0.4,0.2c1.2,0.5,2,1,2.4,1.5c0.4,0.5,0.6,1.2,0.6,1.8
	c0,1-0.5,2-1.3,2.6c-0.9,0.7-2,1-3.5,1c-0.5,0-1.1-0.1-1.6-0.1C83,31,82.4,30.9,81.6,30.7z"/>
</svg>
