<svg xmlns="http://www.w3.org/2000/svg" width="796.18" height="796.18" viewBox="0 0 796.18 796.18"><path d="M784.6,370.12a39.57,39.57,0,0,1,0,55.94L426.06,784.59a39.56,39.56,0,0,1-55.94,0L11.59,426.06a39.55,39.55,0,0,1,0-55.94L370.12,11.59a39.55,39.55,0,0,1,55.94,0Z" fill="#ffc91a"/><path d="M736.85,373.58a34.67,34.67,0,0,1,0,49L422.61,736.85a34.67,34.67,0,0,1-49,0L59.33,422.61a34.67,34.67,0,0,1,0-49L373.58,59.33a34.67,34.67,0,0,1,49,0Z" fill="none" stroke="#211915" stroke-miterlimit="10" stroke-width="11.6"/><path d="M345.19,600.9c.05-.06,0-.19-.05-.19a.93.93,0,0,0-.43-.25,8.67,8.67,0,0,0-2.55,1.14,41.73,41.73,0,0,0-9.5,7.81,54.38,54.38,0,0,0-4.78,5.79,21.61,21.61,0,0,0-1.24,2.21c-.7,1.32-1.27,2.64-1.9,4a19.45,19.45,0,0,0-2.19,6.42,17.78,17.78,0,0,0,.66,8,9.79,9.79,0,0,0,1.2,2.45,3.34,3.34,0,0,0,2.45,1.7,14.66,14.66,0,0,0,2.86.18,25.53,25.53,0,0,0,3.12-.57c1-.12,1.9-.69,3.13-.5a.65.65,0,0,0,.48-.07c1.58-1,3.68-1.39,5.14-2.64.48-.38,1-.7,1.44-1.08a8.64,8.64,0,0,1,.89-.75c2-.82,3.4-2.33,5-3.59a12.09,12.09,0,0,1,1.37-.82,24.88,24.88,0,0,1,4.54-4.16,3.08,3.08,0,0,0,.89-1,3.58,3.58,0,0,1,1.22-.94,10.67,10.67,0,0,1,.82-1,6.42,6.42,0,0,1,.68-1.39,16.83,16.83,0,0,0,1.69-2.7,1.31,1.31,0,0,1,1.17-.88,6.67,6.67,0,0,1-.91,5.22,31.26,31.26,0,0,1-4.94,5.92c-2.11,2-4.38,3.78-6.58,5.6a7.42,7.42,0,0,1-2.12,1.39,3.06,3.06,0,0,0-1.12.82,25.47,25.47,0,0,1-5.42,4.09,17.91,17.91,0,0,1-7.27,2.66,8.89,8.89,0,0,1-6.1-1.51c-.89-.63-1.82-1.13-2.59-1.76a16.87,16.87,0,0,1-5.11-6.66,24.63,24.63,0,0,1-1-2.77,7.44,7.44,0,0,1-.36-3.71c.29-1.19.18-2.45.41-3.65a8.29,8.29,0,0,1,1.84-4.72,2.66,2.66,0,0,0,.45-1c0-.19-.09-.38-.13-.57,0,.19.07.31.12.5a2,2,0,0,0,.39-.44v-.06h.06a.18.18,0,0,0,0-.13,1.2,1.2,0,0,0-.22-.37v-.07l.07.07a15.74,15.74,0,0,1,1-1.2,6,6,0,0,0,1.31-1.89l0,.06c-.05-.19-.09-.37-.15-.63,0,.19.15.38.19.57.15-.19.23-.38.37-.57l0,.13a.5.5,0,0,1,0-.13h.06a1.91,1.91,0,0,0,.4-.44,1.51,1.51,0,0,1-.51-.06h.5v.06a7.75,7.75,0,0,0,2-2.58l0,.06c-.06-.25-.11-.44-.15-.62,0,.18.15.37.19.56a1.28,1.28,0,0,1,.39-.5h-.07v-.06h.06a2.6,2.6,0,0,0,.38-.51l0,.06,0-.06h.06a1.28,1.28,0,0,0,.39-.5l-.05.06v-.06H327c.16-.13.24-.32.4-.44l0-.06h.07c0-.07,0-.07,0-.13s-.12-.25-.22-.38l0,.06,0-.12.08.06a31.06,31.06,0,0,1,6-6.17,23.37,23.37,0,0,1,4.67-3.34,7.24,7.24,0,0,0,2.58-1.83,1.34,1.34,0,0,1,1.24-.56,3.18,3.18,0,0,0,1.9-.45c.71-.69,1.8-.57,2.68-.82a1.83,1.83,0,0,1,1.28.13,7.92,7.92,0,0,0,1,.37c2,.38,2,.44,3-.82a22.47,22.47,0,0,1,1.55-2,1.07,1.07,0,0,1,.86-.32,6.54,6.54,0,0,1,4.33,2.2,1.12,1.12,0,0,1,.24,1.57c-1.1,1.2-2.21,2.33-3.25,3.53s-2.16,2.52-3.25,3.78c-.41.38-.68.82-1.1,1.19a18,18,0,0,0-4,5.17c-.58,1-1,2.14-1.52,3.14-.26.51-.53,1-.81,1.39-.47.94-1,1.89-1.45,2.9a9.39,9.39,0,0,0-.37,1.38c-.07.5-.05,1.13-.17,1.7-.12.82-.89,1-1.69.5a8.55,8.55,0,0,1-2.55-2.64,1.89,1.89,0,0,1-.36-1.25,6.81,6.81,0,0,1,.54-3.08,40.75,40.75,0,0,1,1.83-4c1.34-2.58,2.83-5,4.29-7.62A7.06,7.06,0,0,0,345.19,600.9Zm-24.38,16.45h-.5l.38-.5C320.74,617,320.77,617.16,320.81,617.35Zm2.6-4.16h-.5c.16-.12.25-.25.41-.37Zm-.05-.5c0,.06-.05.06,0,.13a.84.84,0,0,0,0-.13Zm2.78-3.08h-.5a2.56,2.56,0,0,0,.4-.45C326.08,609.35,326.11,609.48,326.14,609.61Zm0-.45-.08-.06h.07Zm0,0H326l0-.06Zm.42-.06h-.43a1,1,0,0,0,.33-.44C326.46,608.85,326.49,609,326.52,609.1Zm0-.5a0,0,0,0,1-.05.06v-.06Zm-.06,0h0Zm.5,0h-.44a2,2,0,0,0,.33-.44C326.85,608.34,326.88,608.47,326.91,608.6Zm-.06-.5c0,.06,0,.06-.05.06v-.06Zm.5,0h-.5c.16-.13.24-.32.4-.45Zm34,9.83c-.06,0-.06,0-.05.07v-.07Z" fill="#211915"/><path d="M378.92,635l-2.25,3.21a1.21,1.21,0,0,1-1.5.25c-2.36-.84-2.62-1.36-3.15-2.51a6.74,6.74,0,0,0-.93-1.32,3.78,3.78,0,0,1-.76-1.64,1.56,1.56,0,0,1,.14-1.32,2,2,0,0,0,.13-2.39c-.18.32-.28.69-.55.88a7.73,7.73,0,0,0-1.53,1.77c-1.25,1.89-2.51,3.71-3.76,5.6-.53.69-1.07,1.32-1.59,2a6.87,6.87,0,0,0-1.06,1.38,5.85,5.85,0,0,1-2.06,1.89,3.81,3.81,0,0,1-3,.19,3.11,3.11,0,0,1-1.15-.63,18.29,18.29,0,0,0-2-2.2,15.37,15.37,0,0,1-1.07-1.38,2.54,2.54,0,0,1,0-1.51,40.84,40.84,0,0,1,2.09-6.86,1.8,1.8,0,0,0,.28-1.51,3,3,0,0,0,1.17-2.51,3.51,3.51,0,0,1,.48-2,34,34,0,0,1,4.84-7.17,4,4,0,0,1,1.53-1.2,3.93,3.93,0,0,1,2.58-.19c.89.31,1.8.5,2.74.75a18.23,18.23,0,0,1,4.14,1.69c.59.38.95.32,1.22-.13.44-.56.87-1.13,1.3-1.69a1.18,1.18,0,0,1,1.38-.51c.59.13,1.2.31,1.79.44a3.92,3.92,0,0,1,2.06,1.07,1.17,1.17,0,0,1,.43,1.32l-.14.19c-1.55,1.7-2.22,3.9-3,6a56.8,56.8,0,0,0-2.19,7.8,4.55,4.55,0,0,0-.05,1.39c0,.12.13.31.27.37a.56.56,0,0,0,.44,0,1.71,1.71,0,0,0,.6-.63c.77-1,1.51-2.14,2.26-3.21l3.26-4.53c.76-1.07,1.57-2.14,2.33-3.15a3.67,3.67,0,0,1,.37-.57c.72-.94,1-2.2,1.84-3.14l1.76,2c-.22.12-3.74,6-3.82,6.16a10.79,10.79,0,0,1-1.74,2.21C381.52,631.38,380.27,633.26,378.92,635Zm-7.28-14.15a3.09,3.09,0,0,0-2.25-.56,4,4,0,0,0-2.26,1.32c-.68.82-1.45,1.57-2.06,2.46-.89,1.25-1.65,2.58-2.54,3.84a29.81,29.81,0,0,0-4,8,7.91,7.91,0,0,1-.77,2.08,4.87,4.87,0,0,0-.17,1.13c0,.12.18.25.27.38a.2.2,0,0,0,.25,0,4.21,4.21,0,0,0,.71-.45,58.88,58.88,0,0,0,4.91-6.86,25.33,25.33,0,0,1,3.1-4.15,4.76,4.76,0,0,0,.67-.88,12.88,12.88,0,0,1,2.11-3c.64-.75,1.2-1.57,1.82-2.39A3,3,0,0,0,371.64,620.88Zm-10,8,.14.07Zm9.18.49-.14-.06A.31.31,0,0,1,370.8,629.37Z" fill="#211915"/><path d="M412.31,632.92a1,1,0,0,0,.6-.95,10.42,10.42,0,0,1,1.11-4.09,6.48,6.48,0,0,0,.56-1.64.6.6,0,0,0-.17-.43.47.47,0,0,0-.43,0c-.62.56-1.3,1.13-1.91,1.76a63.92,63.92,0,0,0-5.36,6.23A19,19,0,0,1,405,636a1.49,1.49,0,0,1-2,.25c-.76-.31-1.47-.69-2.15-.94a6.54,6.54,0,0,1-2.94-2.7,2.46,2.46,0,0,1-.39-2,10.41,10.41,0,0,1,.56-1.89c.44-1.32,1-2.64,1.46-4a5.47,5.47,0,0,0,.17-1.13.88.88,0,0,0-.34-.37c0-.07-.2-.07-.25,0a3.5,3.5,0,0,0-.79.62,51.92,51.92,0,0,0-6.78,9.58c-1.11,2-2.13,4-3.18,6a19,19,0,0,1-1.28,2,1.13,1.13,0,0,1-1.52.19,9.06,9.06,0,0,1-2.44-1.63,3.67,3.67,0,0,1-1.31-3,11.18,11.18,0,0,1,.21-2.07,52.85,52.85,0,0,1,2.55-8.12,9.22,9.22,0,0,0,.8-2.77,8.87,8.87,0,0,1,.68-1.89c.5-1.38,1.05-2.77,1.46-4.22a2.17,2.17,0,0,1,1-1.07,1.56,1.56,0,0,1,.9-.19c1,.32,2,.63,3,1a2.92,2.92,0,0,1,1.37.81,1.64,1.64,0,0,1,.6,1.76c-.39,1-.74,2-1.2,2.9a10.24,10.24,0,0,0-1,2.64c-.22.69-.39,1.32-.62,1.95.07,0,.1.13.1.13l-.11-.19c.47.13.72-.13,1-.38.8-1.13,1.61-2.2,2.48-3.27a5.33,5.33,0,0,1,1.45-1.58c.67-.38.85-1.19,1.36-1.7s1.18-.82,1.54-1.45c.84-1.51,2.41-2.26,3.74-3.27A1.47,1.47,0,0,1,404,616a7.45,7.45,0,0,1,3.54,1.76,2.37,2.37,0,0,1,.86,1.82,3.57,3.57,0,0,1-.4,1.52c-.78,1.76-1.5,3.52-2.28,5.28-.39,1-.7,2.08-1.08,3.15a.78.78,0,0,0,0,.44.8.8,0,0,0,.22.44.61.61,0,0,0,.46.06,2,2,0,0,0,.61-.57,30.66,30.66,0,0,1,4.19-4.34c.74-.57,1.22-1.45,1.89-2.08s1.47-.94,2.16-1.45,1.29-1.19,1.91-1.76c.35-.38.62-.82.91-1.2s.62-.82,1-1.19a1.28,1.28,0,0,1,1.5-.26c.41.13.83.31,1.23.44a2.57,2.57,0,0,1,1.5,3c-.12.31-.29.62-.46,1a35.85,35.85,0,0,0-2.52,6.36,10.68,10.68,0,0,1-.62,1.64,49.59,49.59,0,0,0-2.49,7.86c-.1.38-.2.76-.31,1.07a7.6,7.6,0,0,0-.35,3.9c.19.57-.47.95-1,.82a6.4,6.4,0,0,1-3.71-2.51,3.11,3.11,0,0,1-.64-2.77,4.11,4.11,0,0,1,.76-1.32,2.45,2.45,0,0,0,.68-1.38h-.07l-.12-.57h.06a5.8,5.8,0,0,1,.12-.82c.25,0,.51.06.83.06l0-.06,0,.06h-.88C411.64,633.8,411.75,633.17,412.31,632.92Zm-3.77-2.52c0-.19-.09-.37-.13-.56a.09.09,0,0,1,.08.06.1.1,0,0,0-.1.13,1,1,0,0,0,.22.37Z" fill="#211915"/><path d="M465.88,612.31a2.14,2.14,0,0,1,1.1,1.94,3.46,3.46,0,0,1-.22,1.34,12.5,12.5,0,0,1-.37,1.29,13.25,13.25,0,0,0-.43,1.73,12.63,12.63,0,0,0,1.37,1.74,2.14,2.14,0,0,1-.64,3.32,1.42,1.42,0,0,1-1.22,0l-.92-.5a5,5,0,0,1-2.2-2c-.3-.55-.64-1-1-1.57a.51.51,0,0,0-.66-.08l-.57.6a33.75,33.75,0,0,0-2.64,4.29,7.74,7.74,0,0,1-.68,1.31c-1.73,3.08-3.41,6.1-5.16,9.12-1,1.65-2,3.3-3.15,4.89a1.23,1.23,0,0,1-1.72.19,14.89,14.89,0,0,1-1.75-1.33,3.15,3.15,0,0,1-1-3,21.5,21.5,0,0,1,1.78-5c1.05-2.41,2.17-4.76,3.22-7.17a16.37,16.37,0,0,0,.82-2.51.63.63,0,0,0-.54-.72,2.78,2.78,0,0,1-.74-.14c-.6-.08-1-.75-.66-1.09a11.23,11.23,0,0,0,2.06-3c.17-.27.41-.54.63-.87a.94.94,0,0,1,1.06-.26,12.43,12.43,0,0,1,3.15,1.54,5.24,5.24,0,0,1,2.25,3.38,3.16,3.16,0,0,0,.16.74l.25.18.18,0a.34.34,0,0,0,.22-.14c1.07-1.27,2.16-2.48,3.16-3.81.73-1.13,1.29-2.43,1.95-3.61.28-.52.42-1.1.69-1.69A5.54,5.54,0,0,1,465.88,612.31Zm-16.09,13.55c-.06-.18-.12-.37-.17-.55h.06c-.05.07-.09.14-.07.19s.14.25.24.37Z" fill="#211915"/><path d="M473.73,616.5a6.69,6.69,0,0,1,2.88-1.58,4.69,4.69,0,0,1,3.55.19c.84.38,1.66.69,2.45,1.13a1.35,1.35,0,0,1,.84,1.19,2.73,2.73,0,0,0,.75,1.64,4.77,4.77,0,0,1,1.44,2.95,13.63,13.63,0,0,1-.06,5.66,18.9,18.9,0,0,1-1.17,3.34,40.16,40.16,0,0,1-4.7,7.49,3.07,3.07,0,0,1-2.11,1.14,3.38,3.38,0,0,1-2.15-.38,11.31,11.31,0,0,1-4.44-3.52,14.51,14.51,0,0,1-1.86-3.14,4.52,4.52,0,0,1-.36-2.39c.1-.63.22-1.2.26-1.83s.31-1.38-.48-2.07c-.08-.06-.07-.31,0-.44.13-.51.19-1.07.71-1.26a1.61,1.61,0,0,0,.91-1.2,36,36,0,0,1,2.64-5,10.07,10.07,0,0,0,1-1.89l0,.13Zm8.49,4.52c-.08-.32-.15-.63-.22-.94s-.33-.63-.47-1-.73-.44-.95-.31a9.87,9.87,0,0,0-2.6,2.27,16.87,16.87,0,0,0-2.89,5.85c-.37,1.64-.68,3.27-.93,4.91a9,9,0,0,0,.3,3.14c.06.25.57.57.79.45a3.29,3.29,0,0,0,1.63-1.08,18.68,18.68,0,0,0,2.79-3.84,10.24,10.24,0,0,1,1.68-2.2,4,4,0,0,0,1.21-2.58,10,10,0,0,0,.29-2,5.8,5.8,0,0,0-.53-1.69c0-.07,0-.19,0-.13A6.19,6.19,0,0,0,482.22,621Z" fill="#211915"/><path d="M429.35,640.4a9.08,9.08,0,0,1-4.05-3.46c-.22-.38-.54-.69-.81-1.07a11,11,0,0,1-1.66-3.39,8.45,8.45,0,0,0-.27-.88,11.22,11.22,0,0,1,.64-7.49.76.76,0,0,0-.2.25,15.45,15.45,0,0,0,.9-2.07,15.79,15.79,0,0,1,3.16-5,5.45,5.45,0,0,1,2.75-1.32,1,1,0,0,1,.77.06,22,22,0,0,1,4.57,2,4.4,4.4,0,0,1,2.58,4.65A7.52,7.52,0,0,1,437,625a9.15,9.15,0,0,1-3.73,4.66,3.29,3.29,0,0,1-2.34.69,7.49,7.49,0,0,0-1.25,0,.88.88,0,0,0-.81.56,11,11,0,0,0-.38,5.1,4.67,4.67,0,0,0,.65,1.44,1.2,1.2,0,0,0,1.51.57,19.79,19.79,0,0,0,2.77-1.76,7.63,7.63,0,0,1,1.16-.95,4.38,4.38,0,0,0,1.21-1.26c.91-1.2,2-2.33,2.94-3.46.82-.82,6-7.09,6.8-8,.16-.13,4.68-4.94-4.29,11.49a16.25,16.25,0,0,1-1.74,2.45c-.79.94-1.64,1.83-2.35,2.84a5.33,5.33,0,0,1-2.14,1.82,4.73,4.73,0,0,1-4-.06C430.48,641,429.92,640.71,429.35,640.4Zm1.18-13.65c.24.11,4.11-2.68,4.41-5,.06-.22-.34-.54-.47-.65s-.67-.1-.73.11A11,11,0,0,0,430.53,626.75Z" fill="#211915"/><path d="M389.2,659.19a4.33,4.33,0,0,0-.92,1.93A1.86,1.86,0,0,0,389.2,659.19Z" fill="#211915"/><path d="M387,660.81c-.08,0-.23-.09-.27,0-.28.15-.63.24-.74.49a55.91,55.91,0,0,0-2.87,6.4,3.65,3.65,0,0,1-.56,1.18,41.22,41.22,0,0,0-2.26,4.26,36.11,36.11,0,0,1-2.3,4.51,5.29,5.29,0,0,0-.26.74,2.93,2.93,0,0,1-.25-2c.19-2.22.47-4.39.68-6.55a52.11,52.11,0,0,0,.53-6.78,21,21,0,0,1,.18-3,2.66,2.66,0,0,0,.07-1.54,13.19,13.19,0,0,1-.14-2.79,11.13,11.13,0,0,0-1.84-6.73,7.6,7.6,0,0,0-2.57-2.5,11.3,11.3,0,0,0-7.22-1.76.57.57,0,0,0-.49.64,2.87,2.87,0,0,0,1.71,1.92,1.68,1.68,0,0,1,1,1.22c.26.75.48,1.56.69,2.32s.31,1.45.49,2.15.3,1.58.44,2.34a12.86,12.86,0,0,1,.29,3.47c0,2.51.17,5.11,0,7.57-.13,1.32-.27,2.58-.4,3.84-.51,3.74-.94,7.47-1.38,11.21-.09.84-.27,1.63-.36,2.47a1.32,1.32,0,0,0,.44,1.09,13.93,13.93,0,0,0,3.3,2.19,31.47,31.47,0,0,0,3.1,1.26,1.21,1.21,0,0,0,1.38-.31,5,5,0,0,0,.41-.69c.58-1.49,1.11-2.91,1.63-4.38a49.43,49.43,0,0,1,2.1-5.08c1.12-2.37,2.06-4.84,3-7.31a51.28,51.28,0,0,1,2.19-5,2.1,2.1,0,0,0,.23-1.92c-.19-.34,0-.78.05-1.14a3.61,3.61,0,0,0,.17-1.56C387.13,660.92,387,660.87,387,660.81Z" fill="#211915"/><path d="M397.66,647c3.1-4.65,1.31-3.28.86-3.13s-3.28,4-3.83,4a1.56,1.56,0,0,0-.16.28h-.07c0-.1,0-.18-.07-.25l-.22,0a2.75,2.75,0,0,1-.15.25h-.12l.08,0a8.6,8.6,0,0,0-2,2.93,1.51,1.51,0,0,0-.06.7l-.08-.06,0,.06c-.26.2-.54.35-.74.54l.88,0,0,.06.05-.06A3.47,3.47,0,0,1,391,654a2.09,2.09,0,0,1-.39,2.22,2.57,2.57,0,0,0-.81,1.62,3.47,3.47,0,0,1-.5,1.15,1.39,1.39,0,0,0,1.1-.62c.42-.52.83-1.11,1.25-1.63,1.35-2.21,2.71-4.36,4.2-6.51.74-1,5.35-7.26,6.09-8.28C401.79,641.88,397.79,647,397.66,647Z" fill="#211915"/><path d="M388.08,656.41a3,3,0,0,0-.18,1.14c0,.06.16.12.24.18.66-1,1.34-2,2-3a6.26,6.26,0,0,1,.74-.79c-.08-.25-.18-.62-.27-.93A11,11,0,0,0,388.08,656.41Z" fill="#211915"/><path d="M391.09,652.42H391a3.28,3.28,0,0,0-.42.52l0,.07h.06C390.82,652.81,391,652.61,391.09,652.42Z" fill="#211915"/><path d="M377.1,677.8h0Z" fill="#211915"/><path d="M388.28,661.12l0,.13,0-.07Z" fill="#211915"/><path d="M391,652.42h0Z" fill="#211915"/><path d="M398.93,658.33c.46,0,2,1,2.2.77,1.43-1.45,2.17-2.44,3.61-3.89.2-.2.55-1.42.75-1.62.15-.38-.61-1.48-.91-1.84s-.31-.43-.51-.67a1.36,1.36,0,0,0-1.13-.38,5.86,5.86,0,0,0-3.44,2.94c-.49,1.16-.85,2.37-1.28,3.53a1,1,0,0,0,.33.93C398.64,658.22,398.85,658.27,398.93,658.33Z" fill="#211915"/><path d="M401.94,678.64a1.12,1.12,0,0,1-.52.18l-.87.66-1,1a1.12,1.12,0,0,1-.38.26L399,681a2.55,2.55,0,0,1-.59.6.54.54,0,0,1-.45,0c-.06,0-.07-.06-.14-.06a3.36,3.36,0,0,0-.13-.63,1.21,1.21,0,0,1-.54-1.45,3.74,3.74,0,0,1,0-1.79,63.42,63.42,0,0,1,2.21-7.22c.69-1.61,1.36-3.28,2-4.89a.8.8,0,0,0,.13-.45c.1-.32-.11-.62-.33-.92a3.56,3.56,0,0,0-1.51-1.06c-.7-.22-1.51-.37-2.23-.65a2.07,2.07,0,0,0-2.87.9,10.29,10.29,0,0,0-.64,1.1,42.69,42.69,0,0,0-2.19,5.27c-.4,1.28-.74,2.56-1.22,3.78,0,0-1.83,4.31.84,7.83a7.4,7.4,0,0,0,1.17,1.2,4.87,4.87,0,0,0,1.06.83,20.43,20.43,0,0,0,4,2.07,1.2,1.2,0,0,0,1.5-.33c.71-1.1,2.66-3,3.36-4.07,1.21-1.84,2.31-4.92,2.5-4.58C404.36,676.46,403,678,401.94,678.64Z" fill="#211915"/><path d="M436,660a11.94,11.94,0,0,0-4-2.84c-.5-.22-1,.27-1.08,1a5.45,5.45,0,0,1,0,1.07,15.91,15.91,0,0,1-.7,5.85c-.92,3.41-1.84,6.83-2.77,10.15a14.07,14.07,0,0,0-.85,4.13,3.29,3.29,0,0,1-.53,1.75c-1,1.35-1.35,3.2-2,4.84a22.8,22.8,0,0,1-1.11,2.86c-1,2.24-2.05,4.58-3.23,6.71-.59,1-1.1,2.15-1.62,3.18l-.06.09.05-.18c-.78,1.19-1.64,2.28-2.42,3.55a15.2,15.2,0,0,1-4.65,4.63c-.84.55-1.91.11-2.64-1.12a10.14,10.14,0,0,1-.72-1.13c-.08-.19-.37-.39-.44-.3-.86.28-1.08-.63-1.48-1.29,0-.09-.15-.11-.22-.11a.42.42,0,0,0-.11.26,1.63,1.63,0,0,0-.08.62,7.34,7.34,0,0,0,1.19,3.32,9.61,9.61,0,0,0,4.92,4.26,6.07,6.07,0,0,0,5.35-.63,17.28,17.28,0,0,0,5.48-5.27,61.77,61.77,0,0,0,6.11-11.12,135.36,135.36,0,0,0,5.62-15c.52-1.84.89-3.78,1.48-5.52a57.89,57.89,0,0,0,1.75-7.9,9,9,0,0,0,.15-2A5,5,0,0,0,436,660Z" fill="#211915"/><path d="M435.44,655.53c.45,0,2,.83,2.23.54,1.25-1.6,1.87-2.65,3.12-4.25.17-.22.39-1.46.56-1.68.1-.39-.76-1.41-1.09-1.74s-.35-.39-.57-.61a1.32,1.32,0,0,0-1.15-.26,5.78,5.78,0,0,0-3,3.28c-.37,1.2-.58,2.45-.89,3.64a1,1,0,0,0,.42.89C435.14,655.45,435.35,655.48,435.44,655.53Z" fill="#211915"/><path d="M352.59,672.27c.67-.6,1.41-1.12,2.14-1.67.16-.11.3-.23.44-.34a13.46,13.46,0,0,0,1.65-2.3,3.28,3.28,0,0,0,.09-1,1,1,0,0,1,.87-1,10.18,10.18,0,0,0,.69-3.9c-3.45-3-6.39,3.22-9.53,5.33-.24-7.13,10.18-18.71,15.91-21.84l-.34,0c-7.16,2.64-19.72,13.48-17.87,22.44C347.83,672.54,350.24,673.37,352.59,672.27Z" fill="#211915"/><path d="M444.9,659.65a6.49,6.49,0,0,1,2.88-1.58,4.69,4.69,0,0,1,3.55.18c.83.38,1.66.69,2.45,1.13a1.35,1.35,0,0,1,.84,1.2,2.71,2.71,0,0,0,.75,1.63,4.8,4.8,0,0,1,1.44,3,13.8,13.8,0,0,1-.06,5.66,20.05,20.05,0,0,1-1.17,3.34,40.49,40.49,0,0,1-4.7,7.49,3.06,3.06,0,0,1-2.11,1.13,3.37,3.37,0,0,1-2.15-.37,11.49,11.49,0,0,1-4.44-3.52,14.18,14.18,0,0,1-1.86-3.15,4.43,4.43,0,0,1-.36-2.39c.1-.62.22-1.19.26-1.82s.3-1.38-.48-2.08c-.08-.06-.07-.31,0-.44.13-.5.19-1.07.71-1.25a1.66,1.66,0,0,0,.91-1.2,35.58,35.58,0,0,1,2.64-5,10,10,0,0,0,1-1.88l0,.12Zm8.49,4.52c-.08-.32-.15-.63-.22-.95s-.34-.63-.47-.94-.73-.44-.95-.31a9.83,9.83,0,0,0-2.6,2.26,17.09,17.09,0,0,0-2.89,5.86c-.37,1.63-.68,3.27-.92,4.91a8.75,8.75,0,0,0,.29,3.14c.06.25.57.57.79.44a3.2,3.2,0,0,0,1.62-1.07,18.9,18.9,0,0,0,2.8-3.84,10.31,10.31,0,0,1,1.68-2.21,4,4,0,0,0,1.21-2.58,8.78,8.78,0,0,0,.28-2,5.8,5.8,0,0,0-.51-1.7c0-.06-.05-.19,0-.12A8.12,8.12,0,0,0,453.39,664.17Z" fill="#211915"/><path d="M414.17,683.8a9,9,0,0,1-4.05-3.46c-.22-.38-.54-.69-.81-1.07a11.27,11.27,0,0,1-1.67-3.39,6,6,0,0,0-.26-.88,11.25,11.25,0,0,1,.63-7.49c0,.06-.15.13-.19.25a15.45,15.45,0,0,0,.9-2.07,15.83,15.83,0,0,1,3.15-5,5.48,5.48,0,0,1,2.76-1.32,1.16,1.16,0,0,1,.77.06,22.79,22.79,0,0,1,4.57,1.94,4.42,4.42,0,0,1,2.58,4.66,7.52,7.52,0,0,1-.69,2.39,9.12,9.12,0,0,1-3.74,4.66,3.25,3.25,0,0,1-2.33.69,8.82,8.82,0,0,0-1.26,0,.87.87,0,0,0-.8.57,10.9,10.9,0,0,0-.38,5.1,4.67,4.67,0,0,0,.65,1.44,1.19,1.19,0,0,0,1.5.57,18.54,18.54,0,0,0,2.78-1.77,8.21,8.21,0,0,1,1.16-.94,4.38,4.38,0,0,0,1.21-1.26c.9-1.2,2-2.33,2.94-3.46.81-.82,6-7.09,6.8-8,.16-.13,4.67-4.94-4.29,11.49a16.25,16.25,0,0,1-1.74,2.45c-.79,1-1.65,1.83-2.35,2.84a5.26,5.26,0,0,1-2.14,1.82,4.69,4.69,0,0,1-4,0C415.3,684.36,414.74,684.11,414.17,683.8Zm1.18-13.65c.24.11,4.1-2.68,4.41-5,.06-.22-.34-.54-.47-.64s-.67-.11-.73.1A11,11,0,0,0,415.35,670.15Z" fill="#211915"/><path d="M226.74,398.06h.41A1.71,1.71,0,0,1,226.74,398.06Z"/><path d="M269.92,331.92c-39.4-10.75-32.57,8.51-13.3,16.37-16.16-3.5-16.52,7.34-4.45,13.67-13.46,1.68-6.89,10.74-1.18,13.08-10.75,0-4.24,3.88-3,5.78,0,0-7.28,1.76-7.8,6.36-2.05,1.68,2.7,4.73,4.88,5-2.17,1.35-7,5.48-5.53,7.82,1.63,2.65,7,5.21,8.44,5.58-1.39.39-6,3.08-4.2,6.14,1.64,2.89,8.28,5.32,11.32,5.45-2.12,1.21-5.53,4.09-4.16,6.83,2,4.1,9.21,5.12,9.21,5.12s-5.49,5.52-3.44,9.1,11.12.63,11.12.63-5.63,5.11-2.56,9.21,14.84,2,14.84,2-8.19,18.42,9.11,6.51c-2,5.21-3.38,10.28.1,13.45,3.71,3.38,8.15.74,14-2.27,0,0-5.72,6.55-3.61,10.21,2.21,3.85,10.45,5.09,10.45,5.09l-1.41,4.37c-2.68,8.37,9.34,9,13.15,9.44-24.91,9-75.87,35.34-72.66,39.72s2.49,3.45,4.6,3.58c-1.2,1.12-13.27,6.47-9.23,9.26a3.28,3.28,0,0,0,2.37.84c-.22,1.06.63,2.43,3.18,3.45,2.75,1.11,6.83-2.13,10.66-5.06-.51.8-.19,1.49,1.95,1.77,3.89.52,36.42-13.15,36.42-13.15-5.16,10.32,33.65-8.09,44.36-8.73,29.62-1.77,59.33.94,87.94-7.71,11.17-3.38,28.5-15.15,39.18-9.16a37,37,0,0,0,36.6-.15c12.54-.48,22.87-10.87,32-18.37,4.3-3.53,17.64-16.27,23.78-10.22,1.63-17.46-25.43-11.09-35-8.88-5.83,1.35-11.45,2.5-17.45,2.09-8.64-.59-1.56-.75-6-6.43-.47,2.88-2,2.69-2,2.69,1.06-1.8.88-5.48-2-5.48,1.15,1.56.73,3.26-.07,3.37-4-3.37-2.25-12.17-5.16-17.25-.67-1.18-.92-2.05-6.3-6.47,1.7-3.55,9.69-24.26,30.13-35.54,8.14-4.49,16.4-8.36,19.19-17.8C558.73,348,572,287.79,563.28,247.36c-7.16,1-10.84,15.88-11.39,22.39-.94,10.94-1.52,21.91-2.85,32.81-2-.08,2-66.06-4-74.27-5.63.37-15.54,16.51-14.47,75.54-3.23-29.18-11.12-59.71-13.43-64.09-17.32,11.2-3.21,70.17-1.46,84.58-5.22-12.26-7.54-25.75-11.61-38.44-1.65-5.12-10.85-37.52-17-28.86s.74,33.56,2.72,43.19c1.07,5.2,4.55,13.06,9.21,32.4-7.59-12.41-17.34-35.92-32.1-45.15-3.33,4.6-4.35,9.57-.32,14.16-3.32,0-1,4.6-.64,5.83A84.81,84.81,0,0,0,481,338c-11.81-9.33-31-30.46-37.66-21.49-6.38,8.64,11.44,26.37,21.14,31.64-22.51-7.68-35.82-3.07-15.06,11.16-15.13-6-29.46,2.66-22.81,10.49-6.15.47-8.82,4.29-11.5,12.32-20-35.16-15.54-74-20.47-111.24-1-7.76-9.63-27.51-11.67-22.9-2.05,6.65-.81,18.81-2.55,30.69-.57-5.27-4.31-79.91-11.4-80.7-6,7-7.79,22.32-8.57,33.12-.05.65,4.34,6.64,5.52,8.36.17,0,.3,0,.47.08-.1.29-.27.21-.47-.08-15.35-.69-1.24,44.06,1.85,59-18.11-35.62-24.45-119.34-32.95-89.35-8.64,30.44-.81,67.64,18.42,98.76-29.25-47.16-39.05-75.93-51.19-92-8.47,15.11-1,50.68,13.9,59.7-8.37,1.74,5.88,19.59,19.89,34.36-14-14.77-57.43-56-70-60.85-4.24,18.38,26.46,47.55,46.93,63.62-43.49-31.31-58.16-34.84-66.75-31.78,4.4,11.25,27.71,28.58,38.5,35.06-15.85-7.25-48.55-16.19-49-11.13C235.17,310.49,255.42,323,269.92,331.92ZM248.57,548.85l-.41.16C248.3,548.59,248.35,548.35,248.57,548.85Z"/><path d="M371.61,289.76c-.63-5.75.46.09,0,0Z"/></svg>